<svg xmlns="http://www.w3.org/2000/svg" xmlns:xlink="http://www.w3.org/1999/xlink" version="1.1" id="Capa_1" x="0px" y="0px" viewBox="0 0 1080 1080"  xml:space="preserve" class={Astro.props.class} width="90px">
<g>
	<g>
		<path fill="currentColor" d="M363.5,486.9c0.9,2.7,1.5,5.5,2,8.5c3.2,20.7-6.1,43-24.2,54.4c-16,10.1-49,12.6-62.8-3c-10.5-11.8-27.6,0.7-14.5,13.2    c26,24.7,70.7,22.7,98.4,1.8c30.4-22.9,34.6-71.3,14.4-102.3c-1.2-1.9-2.5-3.7-4-5.4c-27.8-34.1-79-35.7-111-7.4    c-19.3,17.1-35.8,38.7-53.1,57.9c-0.2,0.2-0.4,0.5-0.6,0.7c0,0-11.1,18.5,8.5,17.9c0.9-0.9,2.1-1.4,3.3-1.4l29.4-30.2    c13.5-13.9,26.1-30.6,44.4-38.4C323.4,440.4,354.4,457.7,363.5,486.9L363.5,486.9z"/>
		<path fill="currentColor" d="M133.6,518c-0.9-2.7-1.5-5.5-1.9-8.5c-3.2-20.7,6.1-43,24.2-54.5c15.9-10.1,49-12.6,62.8,3c10.5,11.9,27.6-0.7,14.5-13.2    c-26-24.7-70.7-22.6-98.4-1.8c-30.4,22.9-34.6,71.3-14.4,102.3c1.2,1.9,2.5,3.7,4,5.4c27.8,34.1,79,35.7,111,7.4    c19.3-17.1,35.8-38.7,53.1-57.9c0.2-0.2,0.4-0.5,0.6-0.7c0,0,11.1-18.5-8.5-17.9c-0.9,0.9-2,1.4-3.3,1.4L248,513.3    c-13.5,13.9-26.1,30.6-44.4,38.4C173.8,564.5,142.7,547.2,133.6,518L133.6,518z"/>
	</g>
	<g>
		<path fill="currentColor" d="M418.3,257.8h-45.6c-5.5,0-10,4.5-10,10v51.5c0,5.5-4.5,10-10,10h-1.1c-5.5,0-10-4.5-10-10v-51.5c0-5.5-4.5-10-10-10    h-47.6c-5.5,0-10,4.5-10,10v60c0,5.5-4.5,10-10,10H263c-5.5,0-10-4.5-10-10v-85.6c0-5.5,4.5-10,10-10h176.5c5.5,0,10,4.5,10,10    v85.6c0,5.5-4.5,10-10,10h-1.1c-5.5,0-10-4.5-10-10v-60C428.3,262.3,423.8,257.8,418.3,257.8L418.3,257.8z"/>
		<path fill="currentColor" d="M437.3,377.5c3.4-3.4,7.5-5.1,12.4-5.1s9,1.7,12.4,5.1c4.1,4.1,5.7,9.3,4.8,15.6c-0.3,2-1,4-2.2,5.6c-3.8,5.3-8.8,8-15,8    s-11.2-2.7-15-8c-1.2-1.6-1.9-3.5-2.2-5.5C431.6,386.9,433.2,381.6,437.3,377.5L437.3,377.5z M394.4,402.2H265.8    c-7.1,0-12.8-5.7-12.8-12.8l0,0c0-7.1,5.7-12.8,12.8-12.8h128.6c7.1,0,12.8,5.7,12.8,12.8l0,0    C407.2,396.5,401.5,402.2,394.4,402.2z"/>
		<path fill="currentColor" d="M402.6,704.2c-5,9.4-12.4,16.8-22.4,22.1s-22,8-36.3,8H263c-5.5,0-10-4.5-10-10V719c0-5.5,4.5-10,10-10h77.3    c15.4,0,27.2-3.8,35.3-11.5c8.2-7.7,12.2-18.2,12.2-31.5s-4.2-24.3-12.7-32.2c-8.4-8-20.7-12-36.9-12H263c-5.5,0-10-4.5-10-10    v-5.6c0-5.5,4.5-10,10-10h188.3c5.5,0,10,4.5,10,10v5.6c0,5.5-4.5,10-10,10h-42.4c-7.9,0-12.7,8.7-8.4,15.3    c1.1,1.8,2.2,3.7,3.1,5.7c4.3,8.9,6.5,18.9,6.5,30C410,684.4,407.5,694.9,402.6,704.2L402.6,704.2z"/>
		<path fill="currentColor" d="M386.1,817.5c0-5.5-4.5-10-10-10h-80.9c-7.5,0-12.8,1.6-15.9,4.8c-3.1,3.2-4.6,8.7-4.6,16.6v8.9c0,5.5-4.5,10-10,10H263    c-5.5,0-10-4.5-10-10v-13.1c0-14.3,3.3-25,9.8-32.1c6.6-7.1,17.4-10.7,32.4-10.7h80.9c5.5,0,10-4.5,10-10l0,0c0-5.5,4.5-10,10-10    h1.1c5.5,0,10,4.5,10,10l0,0c0,5.5,4.5,10,10,10h18.9c5.5,0,10,4.5,10,10v5.6c0,5.5-4.5,10-10,10h-18.9c-5.5,0-10,4.5-10,10v20.3    c0,5.5-4.5,10-10,10h-1.1c-5.5,0-10-4.5-10-10L386.1,817.5L386.1,817.5z"/>
	</g>
	<g>
		<path fill="currentColor" d="M438.4,458.3c1.3-0.8,2.6-1.4,4.1-2c6.8-2.6,14.1,2.3,14.1,9.6l0,0c0,2.1-1.7,3.8-3.8,3.8h-0.3    c-17.1,0-25.7,9.3-25.7,27.9V540c0,4.2-3.4,7.6-7.6,7.6l0,0c-4.2,0-7.6-3.4-7.6-7.6v-72.8c0-6.4-1.2-11.5,5.1-11.5h6.4    c2.1,0,3.8,1.7,3.8,3.8l0,0c0,3.3,3.9,5,6.3,2.8C434.8,460.7,436.5,459.4,438.4,458.3L438.4,458.3z"/>
		<path fill="currentColor" d="M548.9,507.3h-47.2c-11,0-16.5,13.6-8.4,21.1c0.1,0,0.1,0.1,0.2,0.2c5.6,5.1,12.5,7.6,20.5,7.6c6.6,0,12.1-1.5,16.5-4.6    c3.2-2.2,5.7-5,7.5-8.3c1.3-2.4,3.9-4,6.6-4l0,0c6,0,9.6,6.7,6.3,11.7c-2.5,3.7-5.7,7-9.5,9.9c-7.4,5.5-16.6,8.3-27.5,8.3    c-8.7,0-16.5-2-23.4-5.9c-6.9-3.9-12.3-9.5-16.2-16.7c-3.9-7.2-5.9-15.6-5.9-25.1s1.9-17.8,5.7-25c3.8-7.2,9.1-12.7,16-16.5    c6.9-3.9,14.8-5.8,23.7-5.8s16.5,1.9,23.2,5.7c6.7,3.8,11.9,9,15.5,15.7c3.6,6.7,5.5,14.2,5.5,22.6c0,0,0,0.1,0,0.1    C558.2,503.3,554,507.3,548.9,507.3L548.9,507.3z M538.5,479.9c-2.6-4.2-6.1-7.4-10.5-9.6s-9.3-3.3-14.7-3.3    c-7.7,0-14.3,2.5-19.7,7.4c-1.7,1.5-3.1,3.2-4.4,5.1c-4.3,6.6,0.4,15.4,8.3,15.4H530c7.6,0,12.5-8.4,8.6-14.9    C538.5,480,538.5,480,538.5,479.9L538.5,479.9z"/>
		<path fill="currentColor" d="M962.7,508.2h-47.2c-11,0-16.5,13.6-8.4,21.1c0.1,0,0.1,0.1,0.2,0.2c5.7,5.1,12.5,7.6,20.5,7.6c6.6,0,12.1-1.5,16.5-4.6    c3.2-2.2,5.7-5,7.5-8.3c1.3-2.4,3.9-4,6.6-4l0,0c6,0,9.6,6.7,6.3,11.7c-2.5,3.7-5.7,7-9.5,9.9c-7.4,5.5-16.6,8.3-27.5,8.3    c-8.7,0-16.5-2-23.4-5.9c-6.9-3.9-12.3-9.5-16.2-16.7c-3.9-7.2-5.9-15.6-5.9-25.1s1.9-17.8,5.7-25c3.8-7.2,9.1-12.7,16-16.5    c6.9-3.9,14.8-5.8,23.7-5.8s16.5,1.9,23.2,5.7c6.7,3.8,11.9,9,15.5,15.7c3.6,6.7,5.5,14.2,5.5,22.6c0,0,0,0.1,0,0.1    C972,504.1,967.8,508.2,962.7,508.2L962.7,508.2z M952.3,480.7c-2.6-4.2-6.1-7.4-10.5-9.6s-9.3-3.3-14.7-3.3    c-7.7,0-14.3,2.5-19.7,7.4c-1.7,1.5-3.1,3.2-4.3,5.1c-4.3,6.6,0.4,15.4,8.3,15.4h32.4c7.6,0,12.5-8.4,8.6-14.9    C952.4,480.8,952.4,480.8,952.3,480.7L952.3,480.7z"/>
		<path fill="currentColor" d="M578.3,476.5c3.8-7.1,9-12.6,15.7-16.5c6.7-3.9,14.1-5.9,22.2-5.9s15,1.7,21,5.2c2.2,1.3,4.1,2.6,5.8,4.1    c2.9,2.5,7.4,0.5,7.4-3.4l0,0c0-2.5,2-4.5,4.5-4.5h6.5c2.5,0,4.5,2,4.5,4.5v83c0,2.5-2,4.5-4.5,4.5h-6.5c-2.5,0-4.5-2-4.5-4.5    v-0.3c0-3.8-4.5-5.9-7.4-3.3c-1.8,1.6-3.9,3-6.1,4.3c-6,3.5-13,5.3-20.9,5.3s-15.5-2-22.2-6c-6.6-4-11.8-9.7-15.6-17    c-3.8-7.3-5.7-15.5-5.7-24.8S574.5,483.7,578.3,476.5L578.3,476.5z M646.2,483.3c-2.8-5.1-6.6-9.1-11.3-11.8s-10-4.1-15.7-4.1    s-10.9,1.3-15.6,4c-4.7,2.7-8.5,6.6-11.2,11.7c-2.8,5.1-4.2,11.2-4.2,18.1s1.4,13.2,4.2,18.4s6.5,9.2,11.2,11.9    c4.7,2.7,9.9,4.1,15.6,4.1s10.9-1.4,15.7-4.1c4.8-2.7,8.5-6.7,11.3-11.9c2.8-5.2,4.2-11.3,4.2-18.2S649,488.5,646.2,483.3    L646.2,483.3z"/>
		<path fill="currentColor" d="M716.3,468.2c-3.3,0-6,2.7-6,6v48.2c0,4.5,1,7.6,2.9,9.5c1.9,1.8,5.2,2.8,9.9,2.8h5.3c3.3,0,6,2.7,6,6v1c0,3.3-2.7,6-6,6    h-7.8c-8.5,0-14.9-2-19.1-5.9c-4.2-3.9-6.4-10.3-6.4-19.3v-48.2c0-3.3-2.7-6-6-6l0,0c-3.3,0-6-2.7-6-6v-0.7c0-3.3,2.7-6,6-6l0,0    c3.3,0,6-2.7,6-6v-11.2c0-3.3,2.7-6,6-6h3.4c3.3,0,6,2.7,6,6v11.2c0,3.3,2.7,6,6,6h12.1c3.3,0,6,2.7,6,6v0.7c0,3.3-2.7,6-6,6    L716.3,468.2L716.3,468.2z"/>
		<path fill="currentColor" d="M753.3,437.7c-2-2-3-4.5-3-7.4s1-5.4,3-7.4c2.7-2.7,6.2-3.6,10.5-2.7c0.4,0.2,0.8,0.4,1.2,0.5c3.8,2.3,5.8,5.5,5.8,9.6    s-1.9,7.3-5.8,9.6c-0.4,0.1-0.8,0.2-1.2,0.5C759.5,441.3,756,440.4,753.3,437.7L753.3,437.7z M768,463.3V540    c0,4.2-3.4,7.6-7.6,7.6l0,0c-4.2,0-7.6-3.4-7.6-7.6v-76.7c0-4.2,3.4-7.6,7.6-7.6l0,0C764.6,455.7,768,459.1,768,463.3L768,463.3z"/>
		<path fill="currentColor" d="M833.7,518.8l21.3-58.2c1.1-3,3.9-4.9,7.1-4.9l0,0c5.3,0,8.9,5.3,7,10.3l-28.8,73.4c-2,5-6.8,8.3-12.1,8.3l0,0    c-5.4,0-10.2-3.3-12.1-8.3L787.2,466c-2-5,1.7-10.4,7.1-10.4l0,0c3.2,0,6,2,7.1,5l21.4,58.2C824.7,523.8,831.8,523.8,833.7,518.8    L833.7,518.8z"/>
	</g>
</g>
</svg>