<svg xmlns="http://www.w3.org/2000/svg" id="Capa_2" data-name="Capa 2" viewBox="0 0 756.71 284.77" class={Astro.props.class}  >
  <defs>
    <style>
      .cls-1 {
        fill: currentColor;
      }
    </style>
  </defs>
  <g id="Capa_1-2" data-name="Capa 1">
    <g>
      <g>
        <path class="cls-1" d="M373.8,142.55c-.17-24.76-1.01-49.52-2.41-74.26-.93-16.05-.52-32.25,.49-48.35,.29-4.76,.58-9.75-1.87-14.04-1.06-1.87-2.71-3.47-4.74-4.11-7.31-2.31-9.65,6.54-10.51,11.84-.34,2.09-.8,4.24-2.03,5.96-1.85,2.61-5.3,3.38-7.73,1.13-2.54-2.37-5.25-4.6-8.05-6.64-5.6-4.12-11.69-7.56-18.21-9.89-48.59-17.36-93.48,22.28-115.65,62.53-11.36,20.62-18.86,43.89-18.36,67.5,.93,44.46,38.04,91.24,86.06,77.04,5.82-1.72,11.47-4.68,15.64-9.21,3.63-3.94,5.78-9.16,6.36-14.49,.27-2.54,.39-5.54-.34-8.01-.78-2.66-2.41-5.08-3.3-7.73-1.49-4.4-2.28-9.1-2.28-14,0-8.99,2.69-17.36,7.3-24.3,3.38-5.14,7.83-9.52,13.02-12.81,1.92-1.22,3.94-2.29,6.05-3.18,1.61-.72,3.31-1.31,5.04-1.81,3.74-1.09,7.73-1.66,11.82-1.66h.37c.88,0,1.76,.04,2.63,.11,5.38,.37,10.5,1.74,15.17,3.94-4.39-1.59-9.1-2.46-14.01-2.5h-.37c-4.09,0-8.07,.57-11.82,1.66-3.96,1.13-7.68,2.83-11.08,4.99-5.19,3.29-9.64,7.67-13.02,12.81-4.61,6.95-7.3,15.31-7.3,24.3,0,4.9,.8,9.6,2.28,14,4.47,13.24,16.45,24.84,28.93,30.47,17.09,7.75,36.63,5.55,41.43,4.12,5.14-1.55,7.62-4.88,7.62-4.88,2.11-2.92,2.3-6.77,2.39-10.39,.15-5.38,.26-10.78,.34-16.16,.19-11.32,.24-22.65,.15-33.97Zm-26.05-47.75c.05,.56,.11,1.25-.31,1.79-3.22,4.1-22.66-15.51-44.21-12.99-8.66,1.01-16.9,5.24-23.42,11.02-6.05,5.36-9.61,13.12-16.31,17.86-11.32,8.01-26.6,3-34.46-7.66-20.42-27.68,4.37-65.1,33.01-72.81,14.9-4.01,30.92-1.63,44.54,5.47,14.53,7.58,24,19.71,32,33.78,4.05,7.12,8.4,15.22,9.16,23.55Z"/>
        <path class="cls-1" d="M756.67,142.55c-.17-24.76-1.01-49.52-2.41-74.26-.93-16.05-.52-32.25,.49-48.35,.29-4.76,.58-9.75-1.87-14.04-1.06-1.87-2.71-3.47-4.74-4.11-7.31-2.31-9.65,6.54-10.51,11.84-.34,2.09-.8,4.24-2.03,5.96-1.85,2.61-5.3,3.38-7.73,1.13-2.54-2.37-5.25-4.6-8.05-6.64-5.6-4.12-11.69-7.56-18.21-9.89-48.59-17.36-93.48,22.28-115.65,62.53-11.36,20.62-18.86,43.89-18.36,67.5,.93,44.46,38.04,91.24,86.06,77.04,5.82-1.72,11.47-4.68,15.64-9.21,3.63-3.94,5.78-9.16,6.36-14.49,.27-2.54,.39-5.54-.34-8.01-.78-2.66-2.41-5.08-3.3-7.73-1.49-4.4-2.28-9.1-2.28-14,0-8.99,2.69-17.36,7.3-24.3,3.38-5.14,7.83-9.52,13.02-12.81,1.92-1.22,3.94-2.29,6.05-3.18,1.61-.72,3.31-1.31,5.04-1.81,3.74-1.09,7.73-1.66,11.82-1.66h.37c.88,0,1.76,.04,2.63,.11,5.38,.37,10.5,1.74,15.17,3.94-4.39-1.59-9.1-2.46-14.01-2.5h-.37c-4.09,0-8.07,.57-11.82,1.66-3.96,1.13-7.68,2.83-11.08,4.99-5.19,3.29-9.64,7.67-13.02,12.81-4.61,6.95-7.3,15.31-7.3,24.3,0,4.9,.8,9.6,2.28,14,4.47,13.24,16.45,24.84,28.93,30.47,17.09,7.75,36.63,5.55,41.43,4.12,5.14-1.55,7.62-4.88,7.62-4.88,2.11-2.92,2.3-6.77,2.39-10.39,.15-5.38,.26-10.78,.34-16.16,.19-11.32,.24-22.65,.15-33.97Zm-26.05-47.75c.05,.56,.11,1.25-.31,1.79-3.22,4.1-22.66-15.51-44.21-12.99-8.66,1.01-16.9,5.24-23.42,11.02-6.05,5.36-9.61,13.12-16.31,17.86-11.32,8.01-26.6,3-34.46-7.66-20.42-27.68,4.37-65.1,33.01-72.81,14.9-4.01,30.92-1.63,44.54,5.47,14.53,7.58,24,19.71,32,33.78,4.05,7.12,8.4,15.22,9.16,23.55Z"/>
        <path class="cls-1" d="M568.23,76.34C563.32,28.94,516.56-3.56,470.24,.31c-17.86,1.49-39.3,7.26-53.96,17.76-2.8,2.01-5.51,4.18-8.05,6.51-2.43,2.2-5.9,1.45-7.75-1.11-2-2.75-2.08-6.51-2.65-9.74-.6-3.39-1.43-7.19-3.7-9.89-2.83-3.38-7.55-2.82-10.01,.74-1.29,1.87-2.07,4.18-2.43,6.41-.68,4.22-.61,8.58-.34,12.83,1.01,15.78,1.42,31.66,.49,47.4-1.4,24.25-2.24,48.53-2.41,72.8-.09,11.1-.04,22.2,.15,33.3,.09,5.27,.19,10.57,.34,15.84,.09,3.54,.28,7.32,2.39,10.18,0,0,2.48,3.27,7.62,4.78,2.5,.73,9,1.67,17.07,1.32,7.4-.3,16.19-1.71,24.36-5.36,12.46-5.51,24.45-16.89,28.93-29.87,1.49-4.31,2.28-8.92,2.28-13.73,0-8.82-2.69-17.02-7.3-23.83-3.38-5.04-7.83-9.33-13.02-12.55-3.4-2.11-7.12-3.78-11.08-4.89-3.75-1.07-7.73-1.62-11.82-1.62h-.37c-4.91,.04-9.62,.9-14.01,2.46,4.67-2.16,9.79-3.5,15.17-3.86,.86-.06,1.74-.11,2.63-.11h.37c4.09,0,8.07,.56,11.82,1.62,1.72,.49,3.42,1.07,5.04,1.77,2.11,.88,4.13,1.92,6.05,3.12,5.19,3.22,9.64,7.51,13.02,12.55,4.61,6.81,7.3,15.01,7.3,23.83,0,4.8-.8,9.41-2.28,13.73-.9,2.6-2.54,4.97-3.31,7.58-.71,2.43-.6,5.36-.34,7.86,.58,5.23,2.73,10.33,6.37,14.2,4.18,4.44,9.81,7.34,15.65,9.03,13.39,3.89,27.66,3.27,40.46-2.31,.48-.21,.98-.43,1.49-.68,16.23-7.54,23.66-26.15,16.99-42.65-7.3-18.07-22.53-35.26-43.54-47.07-.02,0-.04-.02-.06-.02-1.05-.6-2.11-1.17-3.19-1.73-23.72-12.36-49.18-15.26-69.8-9.8,4.92-1.31,9.45-2.67,14.58-3.28,13.17-1.56,26.75-.95,39.65,2.18,12.69,3.08,23.33,10.13,35.08,15.45,13.7,6.2,31.94,8.42,43.41-3.37,7.39-7.6,10.5-19.76,11-31.04,.17-3.74,.04-7.38-.3-10.72Zm-25.91,19.21c-7.86,10.45-23.14,15.36-34.46,7.5-6.69-4.64-10.26-12.25-16.31-17.51-6.51-5.66-14.76-9.81-23.42-10.8-21.55-2.46-40.99,16.75-44.21,12.74-.42-.52-.36-1.21-.31-1.75,.76-8.16,5.11-16.1,9.16-23.08,8-13.79,17.47-25.69,32-33.12,13.62-6.96,29.64-9.29,44.54-5.36,28.64,7.55,53.43,44.24,33.01,71.38Z"/>
        <path class="cls-1" d="M176.76,128.01c-1.7-5.76-4.63-11.33-9.1-15.46-3.9-3.57-9.06-5.7-14.33-6.27-2.5-.28-5.47-.38-7.92,.34-2.63,.77-5.01,2.38-7.62,3.25-4.35,1.47-9,2.25-13.84,2.25-8.89,0-17.15-2.66-24.02-7.21-5.08-3.34-9.41-7.74-12.66-12.86-1.21-1.89-2.26-3.89-3.14-5.97-.71-1.59-1.29-3.27-1.79-4.97-1.08-3.7-1.64-7.63-1.64-11.67v-.36c0-.87,.04-1.74,.11-2.59,.37-5.32,1.72-10.37,3.9-14.99-1.57,4.34-2.43,8.99-2.48,13.84v.36c0,4.04,.56,7.97,1.64,11.67,1.12,3.91,2.8,7.59,4.93,10.95,3.25,5.12,7.58,9.52,12.66,12.86,6.87,4.55,15.13,7.21,24.02,7.21,4.84,0,9.49-.79,13.84-2.25,1.05-.35,2.08-.74,3.11-1.15,23.91-9.75,32.35-35.53,26.42-59.13-4.78-19.03-18.5-35.29-37.21-42.23-21.91-8.12-45.28-1.62-64.53,10.03C20.49,41.86-14.67,106.11,6.11,159.6c9.13,23.51,30.19,41.69,54.44,49.46,12.59,4.03,26.5,5.53,40.26,4.45,22.47-1.75,44.57-10.36,60-25.95,15.75-15.92,22.32-37.98,15.95-59.56ZM63.38,42.48c-.18-.36-.05-.75,.05-1.06,1.54-4.66,5.16-8.71,8.46-12.25,6.53-6.99,13.68-12.68,23.18-15.09,8.91-2.26,18.6-1.51,26.79,2.74,15.75,8.17,25.33,32.82,9.73,45.95-6,5.05-15.6,5.91-21.18-.16-3.29-3.59-4.36-8.49-7.19-12.35-3.05-4.16-7.32-7.66-12.25-9.38-12.28-4.27-26.24,4.37-27.59,1.61Z"/>
      </g>
      <g>
        <path class="cls-1" d="M223.4,251.34c1.79-3.29,4.26-5.85,7.43-7.66,3.17-1.81,6.79-2.72,10.88-2.72,5.26,0,9.61,1.32,13.06,3.94,1.31,1,2.46,2.15,3.44,3.46,2.35,3.12-.09,7.6-4,7.6h-.89c-1.76,0-3.29-.7-4.12-2.02-.57-.91-1.29-1.68-2.16-2.31-1.46-1.04-3.25-1.57-5.4-1.57-3.06,0-5.49,1.11-7.28,3.33-1.79,2.22-2.68,5.37-2.68,9.45s.89,7.16,2.68,9.38,4.21,3.33,7.28,3.33c3.45,0,5.94-1.22,7.49-3.67,.89-1.4,2.52-2.15,4.17-2.15h0c4.41,0,6.93,5.24,4,8.55-.77,.87-1.63,1.67-2.57,2.4-3.47,2.71-7.81,4.06-13.02,4.06-4.09,0-7.71-.91-10.88-2.72-3.16-1.81-5.64-4.37-7.43-7.66-1.79-3.29-2.68-7.13-2.68-11.53s.89-8.23,2.68-11.52Z"/>
        <path class="cls-1" d="M285.7,242.96s.04-.03,.07-.04c1.11-.63,2.44-.78,3.67-.43s2.29,1.16,2.99,2.21c.8,1.21,.91,2.76,.81,4.18-.11,1.43-.75,2.66-2.11,3.24-.76,.32-1.63,.2-2.44,.27s-1.56,.21-2.31,.42c-1.28,.36-2.51,.96-3.49,1.87-1.71,1.58-2.57,4.34-2.57,8.27v15.47c0,2.8-2.02,5.36-4.81,5.64-3.21,.32-5.91-2.19-5.91-5.33v-31.4c0-2.8,2.02-5.36,4.81-5.64,3.21-.32,5.91,2.19,5.91,5.33v1.22c1.38-2.24,3.18-4.01,5.4-5.28Z"/>
        <path class="cls-1" d="M337.92,264.48c-1.42,1.25-3.48,1.66-5.4,1.68-4.05,.04-8.12-.08-12.18-.08h-11.71c.25,3.06,1.33,5.46,3.22,7.2,1.89,1.74,4.21,2.6,6.97,2.6,3.15,0,5.58-1.07,7.29-3.2,.88-1.1,2.2-1.85,3.61-1.92,4.88-.26,7.12,5.64,3.59,8.84-.47,.42-.96,.83-1.47,1.22-3.47,2.63-7.73,3.94-12.79,3.94-4.09,0-7.75-.91-10.99-2.72-3.24-1.81-5.77-4.38-7.58-7.7-1.81-3.32-2.72-7.15-2.72-11.49s.89-8.24,2.68-11.56c1.79-3.32,4.29-5.87,7.5-7.66,3.22-1.79,6.92-2.68,11.1-2.68s7.64,.87,10.84,2.6c3.19,1.73,5.67,4.2,7.43,7.39,1.98,3.59,4.23,9.46,1.06,13.07-.14,.16-.29,.31-.45,.45Zm-9.07-5.6c-.05-2.76-1.05-4.96-2.99-6.62-1.94-1.66-4.32-2.49-7.12-2.49-2.66,0-4.89,.81-6.7,2.41-1.81,1.61-2.92,3.84-3.33,6.7h20.14Z"/>
        <path class="cls-1" d="M533.88,264.48c-1.42,1.25-3.48,1.66-5.4,1.68-4.05,.04-8.12-.08-12.18-.08h-11.71c.25,3.06,1.33,5.46,3.22,7.2,1.89,1.74,4.21,2.6,6.97,2.6,3.15,0,5.58-1.07,7.29-3.2,.88-1.1,2.2-1.85,3.61-1.92,4.88-.26,7.12,5.64,3.59,8.84-.47,.42-.96,.83-1.47,1.22-3.47,2.63-7.73,3.94-12.79,3.94-4.09,0-7.75-.91-10.99-2.72-3.24-1.81-5.77-4.38-7.58-7.7-1.81-3.32-2.72-7.15-2.72-11.49s.89-8.24,2.68-11.56c1.79-3.32,4.29-5.87,7.5-7.66,3.22-1.79,6.92-2.68,11.1-2.68s7.64,.87,10.84,2.6c3.19,1.73,5.67,4.2,7.43,7.39,1.98,3.59,4.23,9.46,1.06,13.07-.14,.16-.29,.31-.45,.45Zm-9.07-5.6c-.05-2.76-1.05-4.96-2.99-6.62-1.94-1.66-4.32-2.49-7.12-2.49-2.66,0-4.89,.81-6.7,2.41-1.81,1.61-2.92,3.84-3.33,6.7h20.14Z"/>
        <path class="cls-1" d="M347.57,251.3c1.71-3.32,4.03-5.87,6.97-7.66,2.94-1.79,6.22-2.68,9.84-2.68,3.16,0,5.94,.64,8.31,1.91,2.37,1.28,4.28,2.88,5.71,4.82v-.65c0-2.98,2.42-5.4,5.4-5.4h0c2.98,0,5.4,2.42,5.4,5.4v31.63c0,2.98-2.42,5.4-5.4,5.4h0c-2.98,0-5.4-2.42-5.4-5.4v-.81c-1.38,1.99-3.28,3.64-5.71,4.94-2.42,1.3-5.22,1.95-8.38,1.95-3.57,0-6.83-.92-9.77-2.76-2.93-1.83-5.26-4.43-6.97-7.77-1.71-3.34-2.57-7.19-2.57-11.52s.86-8.09,2.57-11.41Zm29.29,4.86c-1.02-1.86-2.4-3.29-4.14-4.29-1.74-1-3.6-1.5-5.59-1.5s-3.83,.49-5.51,1.46c-1.68,.97-3.05,2.39-4.1,4.25-1.05,1.86-1.57,4.07-1.57,6.62s.52,4.79,1.57,6.7,2.42,3.39,4.14,4.41,3.53,1.53,5.48,1.53,3.85-.5,5.59-1.5c1.73-.99,3.11-2.42,4.14-4.29,1.02-1.86,1.53-4.1,1.53-6.7s-.51-4.84-1.53-6.7Z"/>
        <path class="cls-1" d="M412.16,250.46v20.52c0,1.43,.34,2.46,1.03,3.1,.69,.64,1.85,.96,3.49,.96h.46c2.5,0,4.52,2.02,4.52,4.52h0c0,2.5-2.02,4.52-4.52,4.52h-2.22c-9.04,0-13.56-4.39-13.56-13.17v-20.45h-.65c-2.43,0-4.4-1.97-4.4-4.4h0c0-2.43,1.97-4.4,4.4-4.4h.65v-5.09c0-2.98,2.42-5.4,5.4-5.4h0c2.98,0,5.4,2.42,5.4,5.4v5.09s5.09,0,5.09,0c2.43,0,4.4,1.97,4.4,4.4h0c0,2.43-1.97,4.4-4.4,4.4h-5.09Z"/>
        <path class="cls-1" d="M430.12,234.8c-1.25-1.2-1.88-2.69-1.88-4.48s.62-3.28,1.88-4.48c1.25-1.2,2.82-1.8,4.71-1.8s3.46,.6,4.71,1.8c1.25,1.2,1.88,2.69,1.88,4.48s-.62,3.28-1.88,4.48c-1.25,1.2-2.82,1.8-4.71,1.8s-3.46-.6-4.71-1.8Zm9.99,12.21v31.7c0,2.96-2.4,5.36-5.36,5.36h0c-2.96,0-5.36-2.4-5.36-5.36v-31.7c0-2.96,2.4-5.36,5.36-5.36h0c2.96,0,5.36,2.4,5.36,5.36Z"/>
        <path class="cls-1" d="M468.71,273.17l9.18-27.88c.71-2.17,2.74-3.63,5.02-3.63h0c3.68,0,6.23,3.67,4.95,7.12l-11.79,31.86c-.77,2.07-2.74,3.45-4.95,3.45h-5.65c-2.21,0-4.19-1.38-4.96-3.46l-11.73-31.86c-1.27-3.45,1.28-7.11,4.96-7.11h.09c2.28,0,4.3,1.46,5.02,3.63l9.19,27.88c.11,.33,.57,.33,.68,0Z"/>
      </g>
    </g>
  </g>
</svg>