<svg    xmlns="http://www.w3.org/2000/svg" viewBox="0 0 482.97 247.61" class={Astro.props.class} >
<g id="Layer_2" data-name="Layer 2"><g id="Capa_1" data-name="Capa 1">
<polygon fill="currentColor" points="310.44 21.72 291.61 5.98 269.1 5.98 253.86 5.98 231.36 5.98 212.52 21.72 198.02 74.93 183.52 21.72 164.69 5.97 142.17 5.97 126.94 5.97 104.44 5.97 85.59 21.72 71.09 74.96 56.58 21.72 37.75 5.97 0 5.97 21.95 86.4 40.13 101.53 63.85 101.53 78.33 101.53 101.14 101.53 120.49 85.43 134.55 33.91 148.87 86.41 167.06 101.54 190.77 101.54 205.26 101.54 228.06 101.54 247.42 85.44 261.48 33.89 275.81 86.41 294 101.54 332.2 101.54 324.95 74.96 310.44 21.72"/>
<polygon fill="currentColor" points="377.71 21.72 358.88 5.98 336.37 5.98 321.15 5.98 343.1 86.42 361.27 101.54 399.47 101.54 392.22 74.96 377.71 21.72"/>
<polygon fill="currentColor" points="437.21 53.76 399.47 53.76 408.81 88 429.67 105.37 465.82 105.37 456.05 69.5 437.21 53.76"/>
<path fill="currentColor" d="M465.8,0A17.14,17.14,0,1,0,483,17.17,17.14,17.14,0,0,0,465.8,0Zm.05,31.37A14.22,14.22,0,1,1,480,17.22,14.15,14.15,0,0,1,465.85,31.37Z"/>
<path fill="currentColor" d="M477.29,22.93q-.3-4.08-.58-8.15c-.07-.9-.14-1.8-.2-2.7,0-.3-.13-.43-.45-.41s-.92,0-1.38,0a.47.47,0,0,0-.54.35c-.53,1.36-1.09,2.72-1.63,4.08s-1.06,2.66-1.63,4.07l-.54-1.35c-.89-2.21-1.78-4.41-2.65-6.63a.67.67,0,0,0-.79-.52,9.77,9.77,0,0,1-1.21,0c-.32,0-.43.11-.45.41-.06.93-.12,1.86-.19,2.79-.1,1.44-.21,2.89-.32,4.33s-.18,2.57-.28,3.86c0,.33.09.48.44.46s.86,0,1.29,0,.51-.14.53-.49c.06-1,.12-2,.19-3.05.09-1.18.18-2.36.28-3.64.08.19.13.29.18.39.79,1.94,1.57,3.89,2.37,5.82.48,1.15.16.93,1.43,1a.62.62,0,0,0,.67-.46c.82-2.05,1.66-4.09,2.5-6.13.07-.17.14-.34.2-.51.13,1,.2,1.94.26,2.9.09,1.26.18,2.52.26,3.78,0,.31.15.43.46.41h1.24C477.3,23.52,477.33,23.47,477.29,22.93Z"/>
<path fill="currentColor" d="M464.5,12.23c0-.42-.11-.57-.56-.57-1.56,0-3.13,0-4.69,0h-4.78c-.32,0-.43.1-.42.41s0,.75,0,1.12.14.52.53.51c1,0,2.09,0,3.14,0,.33,0,.46.1.45.44,0,.95,0,1.9,0,2.84,0,2,0,4,0,6,0,.44.14.59.57.56s.74,0,1.12,0c.59,0,.59,0,.59-.6V14.35c0-.64,0-.64.63-.64,1,0,2,0,3,0,.32,0,.47-.1.45-.44A9,9,0,0,1,464.5,12.23Z"/>
<path fill="currentColor" d="M60.64,245.18H42.85l-5.5-80.36-.48-11.64h-.65l-.65,11.64-5.65,80.36H12.29L1.62,132H15.36l5,83.93.33,11.8h.65l.64-11.8L28.3,132H44.63l6.63,83.93.49,11.8h.64l.33-11.8L57.57,132H71.31Z"/>
<path fill="currentColor" d="M101.06,245.18l-1.13-12.93h-.32a40,40,0,0,1-2.35,6.06A21.35,21.35,0,0,1,94,243.24a13.75,13.75,0,0,1-4.12,3.24,10.78,10.78,0,0,1-4.86,1.13q-5.49,0-8.81-5.82t-3.31-17.3V213.65q0-11.47,3.31-17.22a10.53,10.53,0,0,1,9.62-5.74,10.8,10.8,0,0,1,7.69,3A18.63,18.63,0,0,1,98.31,202h.49V176.62c0-3.56-.51-6.11-1.54-7.68a5.29,5.29,0,0,0-4.77-2.34,5.16,5.16,0,0,0-4.69,2.26q-1.45,2.26-1.45,7.76V185H73.41V178.4q0-11.47,4.85-17.22t14.23-5.74q9.38,0,14.31,5.74t4.94,17.22v66.78Zm-4.44-12.85q2.17-4.12,2.18-12.53v-7.93a11.58,11.58,0,0,0-2.1-7.35,6.37,6.37,0,0,0-5.18-2.67,4.47,4.47,0,0,0-4.12,2.34c-.92,1.57-1.37,4.13-1.37,7.68v14.4c0,3.66.4,6.28,1.21,7.84a4,4,0,0,0,3.8,2.34Q94.43,236.45,96.62,232.33Z"/>
<path fill="currentColor" d="M146.34,245.18l-1.13-12.93h-.32a41,41,0,0,1-2.35,6.06,22,22,0,0,1-3.23,4.93,13.66,13.66,0,0,1-4.13,3.24,10.77,10.77,0,0,1-4.85,1.13q-5.49,0-8.81-5.82t-3.32-17.3V213.65q0-11.47,3.32-17.22a10.53,10.53,0,0,1,9.62-5.74,10.76,10.76,0,0,1,7.68,3,18.73,18.73,0,0,1,4.77,8.33h.49V176.62c0-3.56-.52-6.11-1.54-7.68a5.3,5.3,0,0,0-4.77-2.34,5.15,5.15,0,0,0-4.69,2.26q-1.46,2.26-1.45,7.76V185H118.69V178.4q0-11.47,4.85-17.22t14.23-5.74q9.38,0,14.31,5.74T157,178.4v66.78Zm-4.45-12.85q2.19-4.12,2.19-12.53v-7.93a11.58,11.58,0,0,0-2.11-7.35,6.35,6.35,0,0,0-5.17-2.67,4.47,4.47,0,0,0-4.12,2.34q-1.38,2.35-1.38,7.68v14.4c0,3.66.41,6.28,1.21,7.84a4,4,0,0,0,3.8,2.34Q139.72,236.45,141.89,232.33Z"/>
<path fill="currentColor" d="M164,123.91h13.09V245.18H164Z"/>
<path fill="currentColor" d="M222.5,224.49q0,11.64-4.93,17.38t-14.31,5.74q-9.37,0-14.31-5.74T184,224.49V178.4q0-11.47,4.93-17.22t14.31-5.74q9.38,0,14.31,5.74t4.93,17.22ZM208,168.86a5.16,5.16,0,0,0-4.69-2.26,5.1,5.1,0,0,0-4.69,2.34c-1,1.57-1.46,4.12-1.46,7.68v49.65c0,3.66.49,6.28,1.46,7.84a5.87,5.87,0,0,0,9.38,0c1-1.56,1.45-4.18,1.45-7.84V176.62Q209.4,171.13,208,168.86Z"/>
<path fill="currentColor" d="M280.39,167.57V150.75c0-3.77-.54-6.39-1.62-7.84a5.29,5.29,0,0,0-4.52-2.19,5.66,5.66,0,0,0-4.86,2.19c-1.07,1.45-1.61,4.07-1.61,7.84v10.67a21.3,21.3,0,0,0,3.23,11.4,77.87,77.87,0,0,0,7.44,10.11q2.91,3.07,5.74,6.47a53.15,53.15,0,0,1,5.09,7.27A43.2,43.2,0,0,1,293,205a31.91,31.91,0,0,1,1.46,9.95v9.54q0,12-5.42,17.54t-15,5.58q-9.54,0-14.95-5.58t-5.42-17.54v-15h13.74v16.82c0,3.88.57,6.54,1.7,8a5.89,5.89,0,0,0,4.93,2.18,6.13,6.13,0,0,0,5-2.18c1.18-1.46,1.78-4.12,1.78-8V215.59a19.17,19.17,0,0,0-1.14-6.55,31.9,31.9,0,0,0-3-6.14,54,54,0,0,0-4.2-5.82q-2.35-2.84-4.77-5.58-2.59-2.91-5-6.07a54.79,54.79,0,0,1-4.36-6.62,34.49,34.49,0,0,1-3.07-7.52,33.42,33.42,0,0,1-1.14-9.06v-9.7q0-12,5.26-17.47t14.63-5.49q9.54,0,14.8,5.58t5.26,17.38v15Z"/>
<path fill="currentColor" d="M324.86,157.86V169H299.47V157.86Zm-7.6-12.93v82a18.08,18.08,0,0,0,.32,4,3.78,3.78,0,0,0,1.21,2.11,4.36,4.36,0,0,0,2.35.88,34,34,0,0,0,3.72.17v11.15a73.85,73.85,0,0,1-10-.56,13.54,13.54,0,0,1-6.31-2.27,9.31,9.31,0,0,1-3.23-5.09,33.15,33.15,0,0,1-1-8.89V144.93Z"/>
<path fill="currentColor" d="M343,157.86v68.41c0,3.66.42,6.28,1.29,7.84a4.3,4.3,0,0,0,4,2.34,5.75,5.75,0,0,0,5-3.07q1.95-3.07,1.95-9.54v-66h13.09v87.32H357.68l-1.29-9.37h-.49a19.34,19.34,0,0,1-5.17,8.73,11.5,11.5,0,0,1-7.93,3.07q-6,0-9.46-5.82t-3.47-17.3V157.86Z"/>
<path fill="currentColor" d="M378.54,161.18a10.78,10.78,0,0,1,17-2.75,19.31,19.31,0,0,1,4.69,8.65h.48V123.91h13.1V245.18H403.12l-1.46-9.37h-.48a19.72,19.72,0,0,1-5.1,8.73,11.18,11.18,0,0,1-7.84,3.07q-6,0-9.46-5.82t-3.47-17.3V178.4Q375.31,166.93,378.54,161.18Zm20.21,72.2c1.3-2,1.94-5.23,1.94-9.54V179.05c0-4.31-.67-7.47-2-9.46s-3-3-4.93-3a4.3,4.3,0,0,0-4,2.34c-.87,1.57-1.3,4.12-1.3,7.68v49.65c0,3.66.43,6.28,1.3,7.84a4.3,4.3,0,0,0,4,2.34A5.75,5.75,0,0,0,398.75,233.38Z"/>
<path fill="currentColor" d="M421.23,135.23h13.1V153h-13.1Zm0,22.63h13.1v87.32h-13.1Z"/>
<path fill="currentColor" d="M479.76,224.49q0,11.64-4.93,17.38t-14.31,5.74q-9.37,0-14.31-5.74t-4.93-17.38V178.4q0-11.47,4.93-17.22t14.31-5.74q9.38,0,14.31,5.74t4.93,17.22Zm-14.55-55.63a5.93,5.93,0,0,0-9.38.08c-1,1.57-1.45,4.12-1.45,7.68v49.65c0,3.66.48,6.28,1.45,7.84a5.87,5.87,0,0,0,9.38,0c1-1.56,1.46-4.18,1.46-7.84V176.62Q466.67,171.13,465.21,168.86Z"/></g></g></svg>