<svg xmlns="http://www.w3.org/2000/svg" viewBox="0 0 24.22 32"><defs><style>.cls-1,.cls-2{fill-rule:evenodd;}.cls-2{fill:#fbfbfb;}</style></defs><g id="Layer_2" data-name="Layer 2"><g id="Capa_1" data-name="Capa 1"><path class="cls-1" d="M23.43,12a10.27,10.27,0,0,1-1.12,5.13c-.11.21-.12.3.12.43a3.4,3.4,0,0,1,.82,5.37L18,28.35c-.61.63-1.18,1.3-1.85,1.87A7.07,7.07,0,0,1,6.54,30c-1.6-1.5-3.18-3-4.7-4.58a6.12,6.12,0,0,1,.49-8.92.34.34,0,0,0,.12-.48,3.46,3.46,0,0,1-.14-2.37.28.28,0,0,0-.12-.37,5.29,5.29,0,0,1-.63-8l4-4A4.17,4.17,0,0,1,11,.83c.2.14.31.17.51,0a4,4,0,0,1,5.25.32c1.42,1.44,2.82,2.9,4.16,4.41a9.89,9.89,0,0,1,2.52,6.26S23.43,11.92,23.43,12Z"/><path class="cls-2" d="M9.3,11.69c-1.39,0-2.77.06-4.15,0A2.48,2.48,0,0,1,2.8,10a2.51,2.51,0,0,1,.54-2.85C4.65,5.81,6,4.47,7.33,3.12a1.58,1.58,0,0,1,2.36,0l1.16,1.13c.28.27.47.27.76,0L12.94,3a1.42,1.42,0,0,1,2,0c1.39,1.44,2.8,2.87,4.11,4.37a7.4,7.4,0,0,1,1.81,5.25,7.85,7.85,0,0,1-2.57,5.58c-1.7,1.61-3.4,3.21-5.08,4.85a1.65,1.65,0,0,1-2.13.33,7.1,7.1,0,0,1-.71-.63L8,20.52a1.65,1.65,0,0,0-1.88-.35,1.67,1.67,0,0,0-1,1.57,1.61,1.61,0,0,0,.48,1.1q1.78,1.8,3.6,3.57a3.32,3.32,0,0,0,1.86,1,2.8,2.8,0,0,0,2-.6,17.3,17.3,0,0,0,1.83-1.7L20.23,20a.82.82,0,0,1,1.15,0,.8.8,0,0,1,0,1.16l-4.91,5.06c-.6.62-1.19,1.24-1.79,1.85a4.48,4.48,0,0,1-6.35.13c-1.52-1.44-3-2.9-4.51-4.36a3.56,3.56,0,0,1,1.49-6,6.81,6.81,0,0,1,1.8-.14l2.44,0c1.25,0,2.5,0,3.75,0a5.24,5.24,0,0,0,5.13-4.54,5.37,5.37,0,0,0-1.6-4.64C16,7.71,15.24,6.87,14.45,6c-.4-.41-.64-.42-1,0L12.35,7a1.58,1.58,0,0,1-2.21,0L9,5.92A.6.6,0,0,0,8,6c-.46.5-.9,1-1.36,1.49A1.66,1.66,0,0,0,6.2,9.22a1.78,1.78,0,0,0,1.4,1.2,2,2,0,0,0,2-.68A2.21,2.21,0,0,1,11,9a2,2,0,0,1,1.94.73A1.14,1.14,0,0,1,13.07,11a1.12,1.12,0,0,1-1,.75c-.92,0-1.84,0-2.76,0Z"/><path class="cls-2" d="M11.34,15.55l-4.57,0A.81.81,0,0,1,6,14.66a.83.83,0,0,1,.92-.89c1.84,0,3.67,0,5.5,0a.78.78,0,0,1,.26,0,1,1,0,0,1,.47,1.09.78.78,0,0,1-.79.68h-1Z"/></g></g></svg>