<svg  xmlns="http://www.w3.org/2000/svg" viewBox="0 0 509.32 213.73" fill="currentColor" ><g data-name="Layer 2">
<path id="svg-path" d="M222.51 200.42c28.3-1.48 56.54-4.52 84.6-8.5 43.21-6.13 86.38-14.57 127.05-30.39 19-7.4 38-16.83 51.16-32.44 7.38-8.75 12.82-20.42 9.94-31.5-3.36-13-16.56-20.54-28.82-25.95a351.15 351.15 0 0 0-141.94-29.7c-4.88 0-11.21-1-12.12-5.77-1.12-6 7.31-8.57 13.4-8.43A409.34 409.34 0 0 1 439 46.31c26.65 8.35 65.39 21.93 69.93 53.89 4.82 34-31.24 56.43-57.76 68-44.73 19.49-92.95 28.67-141 35.47-49.38 7-99 11.5-149 9.68-42.43-1.55-88.41-5.89-126-27.51C6.77 169.48-10 140 6.53 108.57c15.31-29.14 49.31-49 78-62.87C183-2.08 298.05-8.67 404.77 8.87q25.64 4.22 50.83 10.66c8.69 2.22 17.74 3.94 25.92 7.73 2.83 1.31 11.09 4.48 9.12 9-2.57 5.9-19.59-.32-24-1.31C354.06 9.71 237.84 6.09 127.2 41.84 92.11 53.18 55.54 70.55 30.34 98.19c-11.24 12.32-20.48 28.65-17.2 45 3.72 18.53 21.9 30.31 39.38 37.49 31.82 13.06 66.4 18 100.75 19.88a660.81 660.81 0 0 0 69.24-.14Z" data-name="Layer 1"/>
</g>  
</svg>

