<svg xmlns="http://www.w3.org/2000/svg" viewBox="0 0 129.59 140.37"><defs><style>.cls-1{fill:none;}</style></defs><g id="Layer_2" data-name="Layer 2"><g id="Capa_1" data-name="Capa 1"><path class="cls-1" d="M58.39,16.52A7.32,7.32,0,0,1,59.1,16a6.87,6.87,0,0,0-.71.51,2.12,2.12,0,0,0-.24.2l-.06.05.3-.25Z"/><path d="M129.58,90.09a6.82,6.82,0,0,0-4.4-6L82.52,67.6c3.61,3.64,7.3,6.64,9.12,10l22.51,8.69a3,3,0,0,1,.29,5.46L68.69,115.37a8.63,8.63,0,0,1-7.94,0L15.12,91.59a3,3,0,0,1,.31-5.45L29,80.9c.86-2.18,1.77-4.9,2.56-7.42L4.42,83.94A6.8,6.8,0,0,0,0,90.09H0v14.09l.06,0a6.79,6.79,0,0,0,3.65,5.26l57.82,30.11a6.87,6.87,0,0,0,6.36,0l58-30a6.8,6.8,0,0,0,3.72-6.29h0V90.08Z"/><path d="M79.93,34.32l4.48,1a2.43,2.43,0,0,0,1.47-.19,6.2,6.2,0,0,0,2.82-2.69,3.68,3.68,0,0,0,.46-3.22,1.37,1.37,0,0,0-.94-.76l-1.66-.38-2.81-.65c-1.32-.31-3.25,1-4.3,2.87S78.61,34,79.93,34.32Z"/><path d="M27.57,84.12c-.86,1.52-.94,3-.19,3.73a1.47,1.47,0,0,0,.82.34h0l6.89.74c.11.43.23.82.34,1.17,1.32,4,5.39,5.19,11.6,3.6h0c10,7.33,35.8,7.43,44.09-6.57,2.26-3.8,2-6.81.52-9.59-1.82-3.31-5.51-6.31-9.12-10a33.9,33.9,0,0,1-7.22-9.86,15.27,15.27,0,0,1-.59-2.82,41.17,41.17,0,0,0,11-3.4l.33-.13a12.38,12.38,0,0,1,4.74-1.12,6.24,6.24,0,0,1,1,.07c.23,0,.45.07.67.12a8.57,8.57,0,0,1,3.43,1.9,4.48,4.48,0,0,0,2.24,1.23,2.09,2.09,0,0,0,.38,0h0c1.85,0,4.93-1.85,7.84-4.71,2.52-2.46,6.85-6.39,8.55-14.15.57-2.61.36-4.64-.62-6s-2.48-2.84-4.75-2.38A5.26,5.26,0,0,1,103,22.48c-.2-1.95-.8-7.89-8.77-9-.53-.07-1.1-.12-1.69-.15l-.67-.06C85.76,12.5,77.91,4.77,75.4,1.86a1.44,1.44,0,0,0-.94-.47h0L64.64.16A2.72,2.72,0,0,0,62,.72a6.49,6.49,0,0,0-2.54,3.7A51,51,0,0,0,58.37,14.9l-6.07-.81a4.44,4.44,0,0,0-4.49,1.25,10.36,10.36,0,0,0-3.18,7,16.8,16.8,0,0,0,2.6,11.17,22.75,22.75,0,0,0-5.66,5.33c-.48.5-4.18,4.16-11.88,6.84a6.4,6.4,0,0,0-3.36,3.46c-.62,1.57-.35,2.9.67,3.25a13.72,13.72,0,0,0,2.62.57h0l5.1.61a7.09,7.09,0,0,0-.55.87c-1.3,2.45-5.32,9.57-8.4,12.91a5.25,5.25,0,0,0-1.57,4,1.43,1.43,0,0,0,1.25,1.27h0l6.14.82v0C30.79,76,29.88,78.72,29,80.9A24.22,24.22,0,0,1,27.57,84.12Zm30.58-67.4a2.12,2.12,0,0,1,.24-.2A6.87,6.87,0,0,1,59.1,16a7.32,7.32,0,0,0-.71.51h0l-.3.25ZM55.24,43.4a9.85,9.85,0,0,1,4.3-3.58,11,11,0,0,1,2.84-.74A5.63,5.63,0,0,0,66,36.13c.86-1.58.86-3.1,0-3.71a13.53,13.53,0,0,1-4.8-7.94l0-.24a5.47,5.47,0,0,1-.13-.81c.36.2.74.41,1.14.61A16.75,16.75,0,0,0,67.77,26a11.48,11.48,0,0,0,1.66.11A12.58,12.58,0,0,0,71.16,26a5.09,5.09,0,0,0,3.08-2.13,4.86,4.86,0,0,0,1.13-3.5c0-.21-.17-1-.29-2.22a53.21,53.21,0,0,1-.26-5.51c3.49,3.12,8.68,7,13.58,7.64.31,0,3.09.43,4.21.65a5.11,5.11,0,0,1,2.59,1.5C96.87,24,98.38,27.5,99.77,29c4.83,5.17,12.23,0,9.42,8.46-2.6,7.8-7.6,9.12-7.66,9.15-.2-.14-.47-.36-.71-.55a15.44,15.44,0,0,0-2.13-1.5,9.46,9.46,0,0,0-3.43-1.14,9.94,9.94,0,0,0-1.46-.1h-.17a15.12,15.12,0,0,0-4,.66,24.53,24.53,0,0,0-3.12,1.17C80,48,77.53,48.32,74.36,48.32A9.65,9.65,0,0,1,73,48.23a11.8,11.8,0,0,1-2.94-.83,1.59,1.59,0,0,0-.39-.1l-.24,0c-1.2,0-2.72,1.06-3.69,2.58a4,4,0,0,0-.69,3.52,1.39,1.39,0,0,0,.69.72,5.12,5.12,0,0,1,2.48,2.76,12.29,12.29,0,0,1,1,5.14c0,4.45,19.8,16.61,15.61,21.81-10,12.39-26.58,6-30.25,4.94-1.5-.43-2.54-.94-3-2.17,0-.11-.15-.5-.15-.51a53.49,53.49,0,0,1-1.62-10.55v-.1l0-.07a91.68,91.68,0,0,1,0-12.18v-.12c.1-1.46.25-3.06.47-4.71C51,53.13,52.44,47.37,55.24,43.4Z"/></g></g></svg>