<svg xmlns="http://www.w3.org/2000/svg" viewBox="0 0 93.29 143.32"><g id="Layer_2" data-name="Layer 2"><g id="Capa_1" data-name="Capa 1"><path d="M86.3,4,69.22.36a16.6,16.6,0,0,0-8.28.37L8.34,16.8A11.8,11.8,0,0,0,0,28.07v99.32a11,11,0,0,0,6,9.78l9.63,4.9A11.5,11.5,0,0,0,26.2,142l61.27-32.28a10.91,10.91,0,0,0,5.82-9.65V12.56A8.79,8.79,0,0,0,86.3,4ZM85.19,96.14a11.22,11.22,0,0,1-5.92,9.9L32.42,131.13a6.86,6.86,0,0,1-10.1-6V36.56A12,12,0,0,1,31.21,25l48.21-13a4.58,4.58,0,0,1,5.77,4.43Z"/><path d="M75.63,30.89,33.93,45a1.52,1.52,0,0,0-1,1.43V72.71A1.51,1.51,0,0,0,35,74.11l41.69-16.5a1.51,1.51,0,0,0,1-1.4V32.32A1.51,1.51,0,0,0,75.63,30.89Z"/><path d="M76,69.32,33.63,86.47a1.17,1.17,0,0,0-.73,1.08v11a1.17,1.17,0,0,0,1.64,1.06L76.92,81a1.16,1.16,0,0,0,.7-1.06V70.4A1.17,1.17,0,0,0,76,69.32Z"/><path d="M76.39,88.06l-43,20.28a.87.87,0,0,0-.5.78v11.67a.86.86,0,0,0,1.25.76l43-21.82a.88.88,0,0,0,.47-.77V88.84A.86.86,0,0,0,76.39,88.06Z"/></g></g></svg>