<svg xmlns="http://www.w3.org/2000/svg" viewBox="0 0 128.69 129.7"><g id="Layer_2" data-name="Layer 2"><g id="Capa_1" data-name="Capa 1"><path d="M128.39,27.85A9.08,9.08,0,0,0,124,22.2a9.17,9.17,0,0,0-11.79,2.48l-7,9.19L104.37,35V14.59A10,10,0,0,0,97.3,5L83.61.85a19.51,19.51,0,0,0-12.36.32L8.74,29.44A13,13,0,0,0,.2,41.59L0,109a13.73,13.73,0,0,0,7.51,12.29l13.38,6.81A15,15,0,0,0,34.61,128l24.82-18.84a51.94,51.94,0,0,0,7.53.55c7.36,0,17.64-1.63,22.39-9.85,3.89-6.73,4.42-10.69,3.75-14.35,0-.05,11.27-10.3,11.27-14.7V67.59l.88-1.24,22-31.28.1-.15A9.09,9.09,0,0,0,128.39,27.85ZM34,117.36a4.24,4.24,0,0,1-6.2-3.77V50.22a9.46,9.46,0,0,1,6-8.79l56.5-28.17a4.87,4.87,0,0,1,6.67,4.53l.06,27-4.35,5.73c-1.64-.16-7.11-1.25-7.51-4.18L85,45.67c-.46-3.52-1.16-8.83-5.65-12.12-3.73-2.73-9.15-3.42-16.58-2.11-8.44,1.49-18.32,8.92-25.18,18.92s-9.65,21-7.74,30.78A26.7,26.7,0,0,0,43,99.23a25.87,25.87,0,0,0,8.29,2.94c.74.12,1.46.21,2.18.26ZM61.27,96a16.12,16.12,0,0,1-9.05.88,21.08,21.08,0,0,1-17-16.73c-1.63-8.34.82-17.81,6.9-26.68S56.76,38,63.74,36.77c5.81-1,10-.65,12.43,1.14,2.63,1.93,3.08,5.4,3.49,8.46l.08.67c.66,4.8,5.21,7.25,9.21,8.28L76.28,72c-4,.55-7.6,3.14-10.64,7.74-2.91,4.39-3.55,9.62-4.11,14.23C61.44,94.66,61.36,95.32,61.27,96Zm23.4,1.21c-3.89,6.73-13.84,7.38-20,7.07,1.36-2.79,1.79-6.23,2.2-9.61.51-4.21,1-8.56,3.25-11.9s4.78-5.29,7.39-5.44C82,77,86,81.48,86.35,81.89S90.21,87.55,84.67,97.16ZM122.77,32,90.3,78.19l-.38-.41a21.13,21.13,0,0,0-7.4-5l34-44.79A3.66,3.66,0,0,1,118,26.79a3.71,3.71,0,0,1,5.15,2.44A3.63,3.63,0,0,1,122.77,32Z"/><path d="M69.56,48.36C68,45.65,64.15,44.94,61,46.77S56.49,52.29,58.05,55s5.41,3.41,8.58,1.58S71.12,51.06,69.56,48.36Z"/><path d="M51.45,71.56c3.18-1.83,4.49-5.52,2.92-8.22S49,59.92,45.79,61.75,41.3,67.27,42.86,70,48.27,73.39,51.45,71.56Z"/><path d="M47.84,79.38a5.66,5.66,0,1,0,8,1.93A5.8,5.8,0,0,0,47.84,79.38Z"/></g></g></svg>