<svg xmlns="http://www.w3.org/2000/svg" viewBox="0 0 91.3 134.66"><g id="Layer_2" data-name="Layer 2"><g id="Capa_1" data-name="Capa 1"><path d="M89.53,20.33a5.64,5.64,0,0,0,1.77-3.57V4.5a2,2,0,0,0-.13-.74,1.54,1.54,0,0,0-1-.95L90,2.74,76.61,0a2.16,2.16,0,0,0-1.7.43L1.24,53.71A2.76,2.76,0,0,0,.16,56.86v67.23a4.72,4.72,0,0,0,.55.36l18.53,9.44,1,.52.07,0h0c2.1.67,5.12-.16,8.45-2.6L82.63,92.15c4.48-3.3,8.05-9.9,8.05-14.74V41.91c0-4.83-3.57-6.76-8.05-4.17L48.39,57.55l35.9-32.47Zm-58.75,48V60.15l6.37-5.71,8,3.25L30.61,71.11Zm52-25.45,4.64-2.75v7l0,2.81L76.55,56.15ZM62.85,54.73l10.36-6.16L66.43,62.44,55.85,69ZM53,81.22,66.32,84a1.78,1.78,0,0,1,1.08,2.71L54.06,107a1.67,1.67,0,0,1-3.05-1v-23A1.66,1.66,0,0,1,53,81.22ZM52.1,61.11l-7.63,15L32.53,83.49,40.44,68Zm4.8-14.27-7.72-3.18L60.73,33.31l7.07,3.46ZM71.37,23.78,81.62,14.6l6.29,3.61-9.7,9Z"/></g></g></svg>