<svg xmlns="http://www.w3.org/2000/svg" viewBox="0 0 95.41 135.03"><g id="Layer_2" data-name="Layer 2"><g id="Capa_1" data-name="Capa 1"><path d="M95.15,39.9a4.36,4.36,0,0,0-3.33-3.48l-9.91-2.75,11.16-9.78a4.88,4.88,0,0,0,2.1-4.11V10.12c0-.26.73-6.55-3.22-7.48L78.87.09a5.76,5.76,0,0,0-4.28,1L2.62,50.9A5.9,5.9,0,0,0,0,56.39c.08,1.14.12,41.76.13,63.09a3.5,3.5,0,0,0,1,2.43l.16.16,17.75,10.46,2.06,1.2.06,0a6.09,6.09,0,0,0,1.46.85,6.74,6.74,0,0,0,2.43.41A14.19,14.19,0,0,0,33.05,132L86.69,93.75c4.81-3.42,8.72-10.38,8.72-15.52V44C95.41,43.16,95.27,40.53,95.15,39.9Zm-11.69.41L58.1,54.5,76.53,38.38ZM46.8,59.5l-12,10.69,0-8V62L40.55,57l1.13.44ZM63.49,37.18l.53-.46.08,0,2.29,1.09h0l2.29,1.08.74.35-9.54,8.53-2.61-1-2.47-1-.87-.35Zm17.66-8.35L76,26.34l8.82-7.63,4.73,2.63Zm11.07,16-.15,31.89a19.08,19.08,0,0,1-8.18,15.44L34.12,127.11l-2.43,1.71a2.49,2.49,0,0,1-2.52.18l0,0a2.33,2.33,0,0,1-1.26-2.06v-40a11.55,11.55,0,0,1,.6-3.66,11.75,11.75,0,0,1,2.77-4.5A12,12,0,0,1,33.32,77L88.14,41.78a2.72,2.72,0,0,1,3.19.25l.2.2a.74.74,0,0,1,.18.21,1.49,1.49,0,0,1,.2.31,1.65,1.65,0,0,1,.18.41,2.36,2.36,0,0,1,.13.8Z"/><path d="M70.77,76.7,56.42,73.8a1.78,1.78,0,0,0-2.11,1.76V99.73a1.8,1.8,0,0,0,3.27,1.09L71.94,79.53A1.85,1.85,0,0,0,70.77,76.7Z"/></g></g></svg>