<svg xmlns="http://www.w3.org/2000/svg" viewBox="0 0 95.15 134.96"><g id="Layer_2" data-name="Layer 2"><g id="Capa_1" data-name="Capa 1"><path d="M91.79,12.87a39.63,39.63,0,0,0-3.92-2L60.62.49c-2.68-1-7.1-.3-10.08,1L7.83,19.34c-2,.87-4.46,2.26-5.14,4.2C.28,25.45,0,30.32,0,32.39V98.25c0,5,1.42,11,4.14,12.92l27.39,19.21c.71.5,5.25,3.37,6.58,4a5.09,5.09,0,0,0,2.28.54,6.78,6.78,0,0,0,4-1.49l44.83-33c3.36-2.49,5.9-8.62,5.9-14.28V21C95.15,17.14,93.93,14.18,91.79,12.87Zm-80.4,10c-1-.5,3.13-2.24,8.16-4.6L50.71,5.5c3.69-1.73,6.15-2.18,7.1-1.84l25.7,9.14c2.79,1,.18,1.49-3.47,3.36L49.57,31.71c-5,2.57-9,4.92-11.08,3.74ZM90.75,86.18c0,4.54-2.17,9.29-4.12,10.73l-44.82,33c-.73.53-1.37.74-1.71.56s-1.26-1.37-1.26-4.18V51.12c0-5.2,2.78-10.23,5.28-11.51l44.82-22.9c.38-.19.49-.12.55-.08.5.31,1.26,1.73,1.26,4.37Z"/><path d="M64.42,52.8l-8,4.62a3.48,3.48,0,0,0-1.73,3V91.59a3.47,3.47,0,0,0,5.41,2.88l5.58-3.77A29.2,29.2,0,0,0,78.54,66.47V61A9.41,9.41,0,0,0,64.42,52.8Z"/></g></g></svg>