<svg xmlns="http://www.w3.org/2000/svg" viewBox="0 0 106.87 134.95"><g id="Layer_2" data-name="Layer 2"><g id="Capa_1" data-name="Capa 1"><path d="M103.89,11.85a20.07,20.07,0,0,0-4.83-2.68L74.51.32C72.08-.56,67.32.51,63.87,2L10.26,25.37A22,22,0,0,0,4.9,28.49c-.17.1-.4.31-.58.43C-.16,32,0,36.94,0,39v61.4c0,4.64,1.32,10.26,3.84,12l25.42,17.91c.65.47,4.79,3.6,5.65,4a5.6,5.6,0,0,0,2.58.6,10.41,10.41,0,0,0,6-2.34l36.61-27.27.33.22.26-.39.54.31a7.89,7.89,0,0,0,3.6.86A11.41,11.41,0,0,0,91.41,104c4.28-3.06,8-8.72,10.59-15.27a19.66,19.66,0,0,0,4.87-12.12V18.82A10,10,0,0,0,103.89,11.85Zm-86.62,95c0,.75-.72.85-1.61.23l-5.58-3.89a3.53,3.53,0,0,1-1.55-2.39V94.27c0-.72.69-.85,1.55-.27l5.58,3.75a3.54,3.54,0,0,1,1.61,2.43Zm0-20.4c0,.75-.72.88-1.61.32l-5.58-3.59a3.32,3.32,0,0,1-1.55-2.31V74.34c0-.72.69-.89,1.55-.36l5.58,3.45a3.33,3.33,0,0,1,1.61,2.34Zm0-20.41c0,.75-.73.93-1.62.4l-5.56-3.27a3.1,3.1,0,0,1-1.56-2.24V54.42c0-.73.69-.93,1.56-.45l5.56,3.14a3.13,3.13,0,0,1,1.62,2.26Zm82.38,19a43.39,43.39,0,0,1-3.81,8.54l-1.7,1.27a27,27,0,0,1-5.7,6.91c-1.65,1-3.72,1.63-5.64.64-2.92-1.5-4.67-6.24-4.67-12.66,0-.51,0-1,0-1.53.37-9.09,4.12-19,9.07-24.88a18.18,18.18,0,0,1,4.08-3.68,7.73,7.73,0,0,1,3.89-1.29,4.71,4.71,0,0,1,1.28.18l.42.14a5.08,5.08,0,0,1,.47.23,4.77,4.77,0,0,1,1.05.78c2.23,2.06,3.52,6.32,3.52,11.8A44.15,44.15,0,0,1,99.65,85.08ZM99,56a7.15,7.15,0,0,0-1.43-.61l.06,0L81.88,47.16c-.26-.19-.52-.36-.8-.53h0l-.17-.12,0,0c-2.76-1.48-6.09-1.25-9.41.69C63.21,52.07,56.51,66.33,56.51,79c0,7.49,2.33,13,6.41,15.2a.24.24,0,0,1,.1.05L76.42,103,41.07,129.28c-2.1,1.57-3.64,1.73-4.31,1.38s-1-1.37-1-2.83V57.09a11.1,11.1,0,0,1,.87-4.37,15.71,15.71,0,0,1,6.62-7.54L99.75,16a2.16,2.16,0,0,1,2-.2c.66.41,1.07,1.58,1.07,3.06v41A10,10,0,0,0,99,56Z"/><path d="M91.34,69.81c-3.69,2.38-6.73,9.24-6.73,15.29s3,8.85,6.73,6.29,6.53-9.3,6.53-15.17S95,67.46,91.34,69.81Z"/></g></g></svg>