<svg xmlns="http://www.w3.org/2000/svg" viewBox="0 0 92.38 134.97"><g id="Layer_2" data-name="Layer 2"><g id="Capa_1" data-name="Capa 1"><path d="M84,72.58l-3.62,2.66a2.87,2.87,0,0,0-1,2.05v6.28c0,.71.47.92,1,.48L84,81.29a2.83,2.83,0,0,0,1-2V73.09C85.05,72.39,84.6,72.17,84,72.58Z"/><path d="M84.06,34.64l-3.68,2.27a2.45,2.45,0,0,0-1,1.88v6.35c0,.68.46.94,1,.58l3.68-2.37a2.47,2.47,0,0,0,1-1.87V35.25C85.05,34.57,84.61,34.3,84.06,34.64Z"/><path d="M84,53.62l-3.62,2.45a2.67,2.67,0,0,0-1,2v6.27c0,.71.47,1,1,.55L84,62.33a2.72,2.72,0,0,0,1-2V54.19C85.05,53.49,84.59,53.24,84,53.62Z"/><path d="M84,15.67l-3.61,2a2.35,2.35,0,0,0-1.06,1.88v6.27c0,.71.47,1,1.06.66L84,24.38a2.38,2.38,0,0,0,1-1.86V16.35C85.05,15.66,84.59,15.35,84,15.67Z"/><path d="M33.19,66.1l-4.85,3a3.12,3.12,0,0,0-1.4,2.33v7.29c0,.81.63,1.07,1.4.57l4.85-3.13a3.13,3.13,0,0,0,1.35-2.32V66.71C34.54,65.91,33.94,65.64,33.19,66.1Z"/><path d="M33.19,88l-4.85,3.28a3.34,3.34,0,0,0-1.4,2.41V101c0,.81.63,1,1.4.49l4.85-3.41a3.36,3.36,0,0,0,1.35-2.4V88.53C34.54,87.74,33.94,87.5,33.19,88Z"/><path d="M33.19,109.93l-4.85,3.56a3.61,3.61,0,0,0-1.4,2.5v7.29c0,.81.63,1,1.4.4L33.19,120a3.58,3.58,0,0,0,1.35-2.47v-7.14C34.54,109.58,33.94,109.38,33.19,109.93Z"/><path d="M33.18,44.21l-4.84,2.72a2.9,2.9,0,0,0-1.4,2.26v7.27c0,.82.63,1.11,1.4.66l4.84-2.85A2.93,2.93,0,0,0,34.54,52V44.9C34.54,44.1,33.93,43.79,33.18,44.21Z"/><path d="M71.75,49.12l-6,2c-.6.2-1.13-.12-1.4-.86l-2.94-8c-.72-2-2.85-.94-3.6,1.8L54.54,55.81a5.4,5.4,0,0,1-1.63,2.73L45,64.81c-2,1.6-2.83,5.64-1.36,6.76l5.88,4.48a2.82,2.82,0,0,1,.66,2.53L48.87,91c-.33,3,1.64,3.58,3.28,1l6.49-10.24c.59-.93,1.29-1.46,1.87-1.41l5.83.45c1.33.1,2.85-3,2.6-5.18l-1-9.36a6.28,6.28,0,0,1,.52-3l4.26-9.83C73.66,51.21,73.12,48.65,71.75,49.12Z"/><path d="M87.71,5.23l-.07-.05-.14-.1a3.26,3.26,0,0,0-.39-.18l-.06,0L74,.16c-2.24-.81-7.79,1.66-9.44,2.43L10.23,28.12c-4.72,2.22-6.77,3.75-7.66,4.81a1.19,1.19,0,0,0-.26.11C1.74,33.38,0,34.43,0,43V109.6c0,3,.24,10.21,2.49,11.84L16,131.17c.44.32,3.59,2.84,4.38,3.22a5.58,5.58,0,0,0,2.52.58,10.24,10.24,0,0,0,6.06-2.47L85.54,88.69c3.84-3,6.84-9.3,6.84-14.43V14.19C92.38,11.13,89.7,6.62,87.71,5.23Zm.47,69c0,3.84-2.38,8.93-5.2,11.11L26.34,129.18c-2,1.57-3.52,1.76-4.16,1.44s-1.07-1.46-1.07-3V54.24c0-4.7,3.44-10.51,7.51-12.69l56.63-30.4h0a2.85,2.85,0,0,1,1.24-.38,1,1,0,0,1,.57.15c.54.32,1.12,1.35,1.12,3.27Z"/></g></g></svg>