<svg xmlns="http://www.w3.org/2000/svg" viewBox="0 0 109.05 138.66"><g id="Layer_2" data-name="Layer 2"><g id="Capa_1" data-name="Capa 1"><path d="M83.64,70.58a7.57,7.57,0,0,0-4.06-1.14,10.78,10.78,0,0,0-4.23,1A25.7,25.7,0,0,0,60.17,94.5c.14,5.17,1.56,8.64,4.25,10.31,3.71,2.31,9.11.89,11.72-.31,4.69-2.17,13.62-11.14,13-22.06C88.83,76.87,86.83,72.55,83.64,70.58Z"/><path d="M102,42.94,76.83,34.73V11.85a3.5,3.5,0,0,0-2.72-3.42L37.7.09a3.42,3.42,0,0,0-1.56,0L2.73,7.71A3.5,3.5,0,0,0,0,11.12V47a3.52,3.52,0,0,0,2.31,3.3l12.35,4.46-.16.06a12.81,12.81,0,0,0-8.59,12.1L5.6,111.7A12.82,12.82,0,0,0,12.39,123l26.55,14.14a12.84,12.84,0,0,0,12,.05L102.32,100a12.54,12.54,0,0,0,6.73-11.1V52.33A9.78,9.78,0,0,0,102,42.94ZM41.47,46.08V24l28.35-7.68V44.18L41.47,54.42ZM7,44.5V16.57L34.46,24V54.42l-8.27-3Zm71.3,64.71a22.2,22.2,0,0,1-9,2,14.26,14.26,0,0,1-7.63-2c-4.26-2.64-6.51-7.55-6.7-14.57-.43-16.52,11.31-26,18.32-29,4.64-2,9.28-1.8,13.08.55,4.64,2.87,7.54,8.7,8,16C95,94.65,85.48,105.9,78.31,109.21Z"/></g></g></svg>