<svg xmlns="http://www.w3.org/2000/svg" viewBox="0 0 95.15 134.96"><g id="Layer_2" data-name="Layer 2"><g id="Capa_1" data-name="Capa 1"><path d="M92.46,23.54c-.67-1.94-3.08-3.33-5.14-4.2L44.62,1.44c-3-1.25-7.4-2-10.09-.95L7.29,10.88a39.85,39.85,0,0,0-3.93,2C1.23,14.18,0,17.14,0,21V86.18C0,91.84,2.54,98,5.91,100.46l44.82,33a6.83,6.83,0,0,0,4,1.49,5.17,5.17,0,0,0,2.29-.54c1.32-.67,5.87-3.54,6.57-4L91,111.17c2.72-1.91,4.14-8,4.14-12.92V32.39C95.15,30.32,94.88,25.45,92.46,23.54ZM56.31,126.3c0,2.81-.82,4-1.25,4.18s-1,0-1.71-.56l-44.83-33c-1.94-1.44-4.11-6.19-4.11-10.73V21c0-2.64.75-4.06,1.26-4.37.06,0,.17-.11.54.08L51,39.61c2.49,1.28,5.27,6.31,5.27,11.51Z"/><path d="M41.09,94.51,22,80.45V50.08a3,3,0,1,0-6,0V81.9l0,1.6,21.5,15.84a2.92,2.92,0,0,0,1.77.59,3,3,0,0,0,1.79-5.42Z"/></g></g></svg>