<svg xmlns="http://www.w3.org/2000/svg" viewBox="0 0 121.32 131.13"><g id="Layer_2" data-name="Layer 2"><g id="Capa_1" data-name="Capa 1"><path d="M121.3,84.06a6.35,6.35,0,0,0-4.12-5.63L82.79,65.15c-.36,1.84-.58,3.22-.66,3.76a12.61,12.61,0,0,1-.14,2l24.87,9.6a2.81,2.81,0,0,1,.27,5.11L64.3,107.73a8.06,8.06,0,0,1-7.43,0L14.16,85.47a2.81,2.81,0,0,1,.29-5.11l24.77-9.54a13.48,13.48,0,0,1-.13-2.3c-.13-1.19-.31-2.35-.52-3.47L4.14,78.3A6.38,6.38,0,0,0,0,84.06H0v13.2l.06,0a6.34,6.34,0,0,0,3.42,4.93L57.6,130.39a6.42,6.42,0,0,0,5.95,0l54.27-28.07a6.34,6.34,0,0,0,3.48-5.89h0V84.05Z"/><path d="M48.5,87.23l.08,0a29.9,29.9,0,0,0,24.25,0h0a9.1,9.1,0,0,0,5.47-8.86A13.37,13.37,0,0,1,74.41,81a33.76,33.76,0,0,1-27.4,0l-.08,0A13.23,13.23,0,0,1,43,78.37,9.09,9.09,0,0,0,48.5,87.23Z"/><path d="M43.07,68.31a9.34,9.34,0,0,0,1.35,5.58,9,9,0,0,0,4.11,3.58l.08,0a29.89,29.89,0,0,0,24.25,0A9.12,9.12,0,0,0,77,73.93a9.29,9.29,0,0,0,1.37-5.29h0s1.59-11.86,5.74-20.09a33.24,33.24,0,0,0,1.75-3h0a32.55,32.55,0,0,0,3.49-14.74C89.32,13.79,76.49,0,60.66,0S32,13.79,32,30.79a32.43,32.43,0,0,0,3.5,14.74h0c.36.7.75,1.38,1.15,2.05a60.5,60.5,0,0,1,6.42,20.72Z"/></g></g></svg>