<svg xmlns="http://www.w3.org/2000/svg" viewBox="0 0 93.49 135.27"><g id="Layer_2" data-name="Layer 2"><g id="Capa_1" data-name="Capa 1"><path d="M90.28,5.72,90,5.55a2.58,2.58,0,0,0-1.16-.8L75.43.16c-2.29-.79-8,1.61-9.66,2.37L10.19,27.45a30.26,30.26,0,0,0-7.27,4.12,2.72,2.72,0,0,0-.58.26C1.76,32.18,0,33.25,0,42v68.19c0,3.09.25,10.45,2.53,12.11l13.65,10c.46.33,3.53,2.15,4.18,2.47a5.75,5.75,0,0,0,2.56.58,10.33,10.33,0,0,0,6.15-2.5L86.55,88.31c3.89-3,6.94-9.44,6.94-14.65v-61C93.49,9.48,92.32,6.94,90.28,5.72ZM34.79,117.57a3.66,3.66,0,0,1-1.38,2.51l-4.92,3.74c-.78.6-1.41.41-1.41-.41V116a3.65,3.65,0,0,1,1.41-2.54l4.92-3.61c.76-.56,1.38-.35,1.38.45Zm0-22.17a3.4,3.4,0,0,1-1.38,2.42l-4.92,3.46c-.78.55-1.41.33-1.41-.49V93.4a3.4,3.4,0,0,1,1.41-2.46l4.92-3.33c.76-.51,1.38-.27,1.38.54Zm0-22.15a3.2,3.2,0,0,1-1.37,2.35l-4.93,3.18c-.78.5-1.41.24-1.41-.58V70.8a3.14,3.14,0,0,1,1.41-2.36l4.93-3c.75-.47,1.37-.2,1.37.61Zm0-22.15a3,3,0,0,1-1.38,2.28L28.5,56.26c-.79.47-1.42.17-1.42-.66V48.22a2.94,2.94,0,0,1,1.42-2.3l4.91-2.75c.76-.43,1.38-.12,1.38.69Zm36.53,7.69-15.79,24a2,2,0,0,1-3.6-1.22V54.3a2,2,0,0,1,2.32-2L70,55.59A2.1,2.1,0,0,1,71.32,58.79Zm14.73,20a2.9,2.9,0,0,1-1,2l-3.68,2.8c-.59.45-1.06.23-1.06-.48V76.74a2.89,2.89,0,0,1,1.06-2.08L85,72c.57-.42,1-.19,1,.51Zm0-19.2a2.72,2.72,0,0,1-1,2l-3.67,2.58c-.59.41-1.06.17-1.06-.55V57.22a2.71,2.71,0,0,1,1.06-2L85,52.72c.58-.39,1-.13,1,.57Zm0-19.15a2.48,2.48,0,0,1-1,1.89L81.31,44.7c-.57.37-1,.1-1-.59V37.66a2.47,2.47,0,0,1,1-1.9L85,33.45c.56-.34,1-.07,1,.62Zm0-19.25A2.42,2.42,0,0,1,85,23l-3.66,2.15c-.59.35-1.07,0-1.07-.67V18.16a2.41,2.41,0,0,1,1.07-1.91L85,14.2c.57-.33,1,0,1,.69Z"/></g></g></svg>