<svg xmlns="http://www.w3.org/2000/svg" viewBox="0 0 400.05 400"><g id="Layer_2" data-name="Layer 2"><g id="Capa_1" data-name="Capa 1"><path d="M326.29,262.08c12.36-25.23,12.54-51.26,11-79.52-6.28,6.84-18.69,21.2-21.37,36C312.76,235.65,322.81,254.4,326.29,262.08Z"/><path d="M162.63,75.85a323.6,323.6,0,0,1,36,19c1.78,1.06,3.53,2.14,5.29,3.22,7,4.29,13.54,8.33,20.75,10.86a4.62,4.62,0,0,0,1.05.28,1.75,1.75,0,0,0,.32-.09L230,107.7c14.49-5.24,29.46-10.61,45.19-13.66l.3-.08C248.63,70.69,194.38,61.18,162.63,75.85Z"/><path d="M86.91,212.51l1-1.26C80.45,199.62,72.86,187.73,66.51,175,63.2,203.9,64,223.1,69,234.68A230.86,230.86,0,0,1,85.66,214C86.09,213.54,86.5,213,86.91,212.51Z"/><path d="M112.9,61.43a166.17,166.17,0,0,1,22.72,4.68.81.81,0,0,0,.59,0,146.89,146.89,0,0,1,44.38-13.2,8.82,8.82,0,0,0,6.52-4.28l2.51-4.35,7.73-13.39a3.09,3.09,0,0,1,5.35,0l7.73,13.39L213,48.59a8.81,8.81,0,0,0,6.51,4.28A147.82,147.82,0,0,1,300.53,91a.8.8,0,0,0,.42.21c2.13.35,18.79,3.26,25.14,4.47a.88.88,0,0,0,.84-1.43A165.36,165.36,0,0,0,224.22,36.49L204.72,2.72a5.44,5.44,0,0,0-9.42,0L175.8,36.49a164.47,164.47,0,0,0-63.27,23.34A.87.87,0,0,0,112.9,61.43Z"/><path d="M397.33,198.52l-33.27-19.21a164,164,0,0,0-8-33.84.88.88,0,0,0-1.69.1C353,152.14,349,162.34,345.3,169a.81.81,0,0,0-.08.57c1,4.65,1.75,9.36,2.27,14.15a8.82,8.82,0,0,0,4.3,6.72l3.52,2,13.39,7.73a3.09,3.09,0,0,1,0,5.35l-13.39,7.73L351,215.83a8.8,8.8,0,0,0-4.26,6.34,146.91,146.91,0,0,1-16.23,48.35.83.83,0,0,0-.05.67,116.88,116.88,0,0,1,4.95,20.88.87.87,0,0,0,1.58.38,164.42,164.42,0,0,0,26-64.72s.1,0,.15,0l34.2-19.75A5.44,5.44,0,0,0,397.33,198.52Z"/><path d="M59.76,248.37c-3-8.53-6.09-25.17-6.87-29.37a2.16,2.16,0,0,0-1-1.49l-7.26-4.19-13.39-7.73a3.09,3.09,0,0,1,0-5.35l13.39-7.73,3.65-2.11a8.77,8.77,0,0,0,4.3-6.7,147.25,147.25,0,0,1,5.76-27.56.79.79,0,0,0,0-.48c-.89-2.67-4.9-16.53-6.69-24.82a.89.89,0,0,0-1.66-.19,163.86,163.86,0,0,0-14,48.68L2.72,198.52a5.44,5.44,0,0,0,0,9.42l34.2,19.75s.08,0,.12,0a164,164,0,0,0,12,39.56.87.87,0,0,0,1.6,0,155.24,155.24,0,0,1,9-18.2A.78.78,0,0,0,59.76,248.37Z"/><path d="M252.33,355.07a162,162,0,0,1-24.66-9.13.82.82,0,0,0-.51-.06c-2.61.48-5.23.93-7.89,1.27a8.76,8.76,0,0,0-6.4,4.35l-2.43,4.22-7.74,13.39a3.09,3.09,0,0,1-5.35,0l-7.73-13.39-2.48-4.31a8.75,8.75,0,0,0-6.48-4.27c-13.57-1.77-38.73-10.41-41.29-11.12a.66.66,0,0,0-.37,0c-1.66.33-15.63,3-23.85,3.91a.89.89,0,0,0-.36,1.64,164.45,164.45,0,0,0,61,21.95l19.51,33.78a5.44,5.44,0,0,0,9.42,0l19.5-33.78a164.8,164.8,0,0,0,28.17-6.75A.88.88,0,0,0,252.33,355.07Z"/><path d="M324.8,280.12a110,110,0,0,0-8.35-21.62c-.66-1.28-9.2-22.72-7.64-36.18,2.06-17.9,23.81-44.26,33.4-64.63a49.15,49.15,0,0,0,4.19-12.13c3-17.68-2.32-35.47-22.87-42.83a60.79,60.79,0,0,0-14.47-3.22c-9.88-1-19.81.1-29.72,1.83-17.45,3-34,9.3-50.58,15.27a9.13,9.13,0,0,1-6.7-.16c-10-3.49-18.55-9.41-27.5-14.77-21.89-13.09-44.46-24.35-69.14-29.9a150.83,150.83,0,0,0-22.11-3.32c-1.06-.07-2.11-.08-3.16-.09-23-.28-43.83,14.72-43,41.88.06,2,.2,4,.38,6a150.43,150.43,0,0,0,5.34,27.25c.33,1.17.66,2.34,1,3.5,6.57,22.33,19,41.6,31.45,60.9,1.75,2.71,2.31,4.73-.07,7.15-1.31,1.33-2.38,2.89-3.63,4.28-10.84,12-20.48,24.87-27.95,39a143.3,143.3,0,0,0-7.14,15.68c-.63,1.65-1.16,3.3-1.63,4.94-6.32,22.22,2.4,42.73,28.49,50.23a80.93,80.93,0,0,0,17.55,2.95,112.18,112.18,0,0,0,27.74-2.11q3.78-.71,7.54-1.58c9.86-2.3,17.56-4.12,29.11.59,4.4,1.79,32.08,6.36,47.26,4.65,4-.45,7.46-.39,11.21,1.5,5.5,2.78,11.06,5.33,16.7,7.54a124.38,124.38,0,0,0,28.13,7.6,97.23,97.23,0,0,0,25.2.33c21.3-2.54,34.42-17.39,34.86-38.92.05-2.66,0-5.29-.13-7.91A110.66,110.66,0,0,0,324.8,280.12Zm-19.94-162c14.87,2.28,23.84,12.39,21.45,27.28-2.79,17.38-22.53,46.73-22.53,46.73l-5.85-4.76s5.68-7.87,7.6-11.05c5.55-9.14,9.94-18.65,10.79-29.58,1-12.72-8.07-17.92-17.12-20.32-4.83-1.28-9.75-1.12-16-1.06-7.61-.74-28.79,4.76-28.79,4.76l-2.85-5S286.86,115.32,304.86,118.08Zm-5,119.39c0,7.84,0,15.68,0,23.51,0,11.11-6.79,17.89-17.91,18-13.52.14-21-5-24.58-16.6a13.11,13.11,0,0,1-.52-4c0-12.1-.43-24.21.09-36.29.78-18.43,13.37-27.29,30.59-23,7.92,2,12.33,8.08,12.34,16.38Zm-51.34-22.94-1.42,48.14s-13-1.18-15.57-18.21c-1.19-7.91-.67-15.85,4-22.92C238.57,216.86,242.53,214,248.53,214.53Zm-30.37-89.76c24,11.79,25.94,45,13,60.24-6.25,7.38-14.76,10.44-24.26,10.18a31.35,31.35,0,0,1-23.8-9.77c-5.44-5.5-5.45-5.44-11.16-.34-5.32,4.75-11.57,7.09-18.68,6.12-10.22-1.39-16.28-7.52-18.54-18a32.76,32.76,0,0,1,7-29c7.26-8.84,21.84-8.93,28.06-2,2.16,2.41,3.74,2.15,5.34-.87a52.89,52.89,0,0,1,6.38-9.76C191.5,120,204.23,117.92,218.16,124.77ZM224,272.28c0,9.33-7.34,15.41-16.56,13.71-24.29-4.47-48.72-8-73.21-11.14-8.4-1.09-12.92-5.58-13-14.06-.15-17.73,0-35.47.27-53.21.09-5.88,4.91-10.21,10.78-10.56,11.63-.68,23,1.76,34.58,2.49,12.69.8,25.34,2.4,38,3.68a95.76,95.76,0,0,1,10.6,1.22c4.17.9,8.58,7.24,8.63,12.1.09,9.38,0,18.76,0,28.14h-.12C224.06,253.86,224.1,263.07,224,272.28ZM85.22,135.9c-1.6-7.89-2.07-16,.06-23.76,4-14.7,12.83-20.76,28.18-21.48,17.09-.81,49.17,9.48,71.59,22.86l-8.92,5.06s-28.22-14.32-47.89-17.16c-20.41-2.94-35.41,10-33.79,30.56,1.6,20.27,20.78,58.7,20.78,58.7l-6.38,4.2S89.32,156.06,85.22,135.9Zm56.42,172.66c-12.27,3.25-24.68,5.53-37.43,4.65-1.43-.1-2.86-.21-4.29-.39-6.09-.77-12-2-17.36-4.93-8.48-4.56-11.39-13.45-8.62-25.32.25-1.05.57-2.06.85-3.09,4.12-14.74,12.3-27.39,21.08-39.73,3.41-4.79,6.5-9.87,10.67-13.88a22.24,22.24,0,0,1,4.57,4.31S89.42,258.85,85.4,273.56c-1.35,4.94-2.39,10-1.43,15.06,1.74,9.23,9.18,14.33,20.25,16.07,19,3,62.45-12.35,62.45-12.35a52.49,52.49,0,0,1,9.44,3.63A192.72,192.72,0,0,1,141.64,308.56Zm125.49,23.73c-10.95-1.13-21.31-5-31.5-9.55-12-5.35-36.71-20.39-36.71-20.39l4.64-3.34s30.7,16.64,45.32,20.29a59.05,59.05,0,0,0,27.72.41c11.11-2.55,20.38-12.47,21-24,.15-2.91-.23-9.2-.23-9.2a90.61,90.61,0,0,0,9.41-4.62,76.45,76.45,0,0,1,2,18.94,39.33,39.33,0,0,1-2.51,12.34c-4.57,11.91-13.53,17.54-25.7,19A58.84,58.84,0,0,1,267.13,332.29Z"/><path d="M185.17,238.93c-8.7-1.85-13.42-7.47-15.1-16a3,3,0,0,0-.17-.47c-1.12-2.85-1-7.74-4.36-7.61-3.14.13-3.31,5-3.91,8-1.59,7.86-5.72,13-13.95,14.1-1.7.23-3.93.41-4.08,2-.2,2.06,2.13,3,3.9,3.42,8,1.9,11.42,7.55,12.86,15,.32,1.65.82,3.27,1.19,4.91s.5,3.92,2.25,4.11,2.67-2,2.91-3.62c1.67-11.29,8.53-16.73,19.51-17.77.63-.06,1.2-.65,1.84-.83,1.08-.3,1.14-1.1,1.16-2.21C188.69,240.08,187.09,239.33,185.17,238.93Z"/><path d="M217.92,174.28c2.32-4.23,3.47-8.73,3.13-12.44,0-7.54-1.61-13.48-5.1-18.88-7-10.77-21.65-10.19-27.83,1.1-5.42,9.88-3.46,25.39,4.22,33.56C200.2,186,212.38,184.39,217.92,174.28Z"/><path d="M147.87,155c-2.86,6.57-2.42,13.27.58,19.65a8.68,8.68,0,0,0,8.6,5.31c3.78-.14,6.22-2,8-5.25,1.63-3,1.75-6.13,1.72-9.35,0-6-1.17-9.85-3.82-12.73A9,9,0,0,0,147.87,155Z"/><path d="M282.42,205.34a10.48,10.48,0,0,0-4.59.76,12.34,12.34,0,0,0-7.6,11.12c-.33,13.64-.49,27.3-.25,40.94.14,7.85,5.77,12.85,13,12.6a11.42,11.42,0,0,0,5.79-1.82c3.57-2.26,5.89-6.45,5.94-11.61.07-6.65,0-13.31,0-20h0c0-3.24,0-6.49,0-9.73s0-6.48.09-9.72C295,208.8,288.06,205.68,282.42,205.34Z"/></g></g></svg>