<svg xmlns="http://www.w3.org/2000/svg" viewBox="0 0 400.2 400"><g id="Layer_2" data-name="Layer 2"><g id="Capa_1" data-name="Capa 1"><path d="M87.36,209.11a330.27,330.27,0,0,1-21-32.84.47.47,0,0,0-.87.15,141,141,0,0,0,2.26,58.06.47.47,0,0,0,.85.13,149.7,149.7,0,0,1,18.73-24.92A.47.47,0,0,0,87.36,209.11Z"/><path d="M222.26,337.07a.39.39,0,0,0,.17-.69c-4.56-3.3-28.62-20.74-42.39-20.74a8.88,8.88,0,0,0-3.32.73c-4.7,1.67-9.29,3.46-13.74,5.19-5.09,2-10.26,4-15.56,5.83a.38.38,0,0,0,0,.71,134.91,134.91,0,0,0,74.87,9Z"/><path d="M316.89,221.5a226.11,226.11,0,0,1,11.59,24.41.52.52,0,0,0,1,0,140.21,140.21,0,0,0,6.59-63,.52.52,0,0,0-1-.17q-6.76,14.82-16,32.7l-2.21,4.33A1.87,1.87,0,0,0,316.89,221.5Z"/><path d="M156.14,68.56a.44.44,0,0,0,0,.82c2.21.89,4.43,1.8,6.65,2.71,2.56,1.06,5.78,2.72,9.86,4.82,14.24,7.32,38.08,19.58,60.9,19.58a56.86,56.86,0,0,0,10.11-.88c7.62-1.4,15.26-3.85,23.35-6.44,3.34-1.07,6.74-2.14,10.17-3.16a.44.44,0,0,0,.13-.78A135,135,0,0,0,156.14,68.56Z"/><path d="M397.28,198.45l-32.57-18.8a.42.42,0,0,1-.19-.29,164,164,0,0,0-11.58-43.08.39.39,0,0,0-.75.05,168.37,168.37,0,0,1-8,25.09,2.39,2.39,0,0,0-.09,1.47,147.59,147.59,0,0,1,4.29,25.4.37.37,0,0,0,.19.3l7.23,4.18,12.82,7.4a3.49,3.49,0,0,1,0,6l-12.82,7.4-7.87,4.54a.42.42,0,0,0-.19.29A147.29,147.29,0,0,1,334.89,263a.39.39,0,0,0,0,.28,148.82,148.82,0,0,1,5.86,23.1.4.4,0,0,0,.73.15,164.67,164.67,0,0,0,22-58.51s.1,0,.15,0l33.66-19.43A5.85,5.85,0,0,0,397.28,198.45Z"/><path d="M183.92,52.56a2.52,2.52,0,0,0,1.89-1.22l4.07-7.05,7.74-13.41a3.09,3.09,0,0,1,5.35,0l7.75,13.41,4.15,7.19a2.19,2.19,0,0,0,1.64,1.07,147.68,147.68,0,0,1,73.7,29.54,1.74,1.74,0,0,0,1.39.32c.9-.19,1.8-.38,2.7-.53a77.53,77.53,0,0,1,12.58-1.07,65,65,0,0,1,6.89.37.52.52,0,0,0,.42-.89,165.31,165.31,0,0,0-89.67-43.75L205,2.72a5.45,5.45,0,0,0-9.44,0L176,36.54a164.62,164.62,0,0,0-58.19,20.27.58.58,0,0,0,.21,1.08,142.38,142.38,0,0,1,22.39,5.68,2.48,2.48,0,0,0,1.74-.07A147.31,147.31,0,0,1,183.92,52.56Z"/><path d="M53,219.34a2.26,2.26,0,0,0-1.11-1.56l-7.22-4.17-13.41-7.74a3.1,3.1,0,0,1,0-5.36l13.41-7.74,7.24-4.18a.66.66,0,0,0,.33-.51,147.36,147.36,0,0,1,5.42-29.26c-.37-.82-.76-1.63-1.12-2.45A149.92,149.92,0,0,1,49,135a.42.42,0,0,0-.8-.05A163.94,163.94,0,0,0,36,179.57L2.72,198.79a5.45,5.45,0,0,0,0,9.44L37,228s.08,0,.12,0a164.16,164.16,0,0,0,13.4,42.64.43.43,0,0,0,.8-.06,128.47,128.47,0,0,1,8.81-20.75.36.36,0,0,0,0-.32C57,240.69,53.79,223.69,53,219.34Z"/><path d="M216.48,348a2.12,2.12,0,0,0-1.63,1.06l-4.13,7.15-7.28,12.6a3.63,3.63,0,0,1-6.29,0l-7.27-12.6-4.1-7.1a2.25,2.25,0,0,0-1.72-1.11,147.46,147.46,0,0,1-52.42-16c-.78.18-1.56.38-2.35.54a185.89,185.89,0,0,1-21.75,3.54.55.55,0,0,0-.27,1A164.79,164.79,0,0,0,175.78,364a.55.55,0,0,1,.38.26L195.09,397a6,6,0,0,0,10.37,0l18.94-32.8a.55.55,0,0,1,.38-.26,164.19,164.19,0,0,0,39.76-11.2.54.54,0,0,0-.1-1,183.3,183.3,0,0,1-25.7-7.83.47.47,0,0,0-.31,0A147.38,147.38,0,0,1,216.48,348Z"/><path d="M329.59,273.31c-1.47-5.13-3.16-10.21-5-15.26-.76-2.08-1.55-4.16-2.34-6.24-9.83-25.76-25.14-48.41-40.69-70.92-1.26-1.82-3.4-3.47-2.38-7.19a295,295,0,0,1,31.94,39.76c2-4,13.06-25,22.1-46.35,2.49-5.88,4.82-11.79,6.78-17.39,3.1-8.86,5.26-16.95,5.56-22.89a51.51,51.51,0,0,0-.05-6c-.91-13.06-7.27-23.65-20-28.75-1.12-.45-2.27-.86-3.49-1.22a57.32,57.32,0,0,0-23.05-1.6c-1.11.13-2.23.29-3.33.47-3.19.52-6.37,1.26-9.54,2.08-13.71,3.52-27.31,9.12-41,11.62-34.59,6.35-73.13-18.92-85.36-24-5.14-2.12-10.3-4.21-15.5-6.13-4.42-1.63-8.88-3.12-13.38-4.4a107.09,107.09,0,0,0-25.33-4.29,84.83,84.83,0,0,0-10.9.27C67,67.51,51.85,85,53.31,112.21a94.74,94.74,0,0,0,1.07,9.88,120.59,120.59,0,0,0,7.08,25.33q1.13,2.88,2.37,5.75c1.45,3.32,3,6.58,4.61,9.81a306.3,306.3,0,0,0,26.81,43.41c1.89,2.6,2.28,4.19-.29,6.85A141.35,141.35,0,0,0,73.13,242.6c-.64,1.15-1.28,2.3-1.91,3.45-2.49,4.52-4.9,9-7.07,13.69a92.46,92.46,0,0,0-7.55,22.62,69.86,69.86,0,0,0-1,7.62c-1.5,21.95,12.62,34.3,29.07,37.38a72.34,72.34,0,0,0,11.1,1.16A118,118,0,0,0,121.24,326c2.14-.41,4.27-.83,6.4-1.28,2.84-.6,5.62-1.34,8.39-2.14,12.91-3.71,25.19-9.22,37.83-13.7,5.46-1.93,12.93-5,52.11,20.39a86.47,86.47,0,0,0,9.95,4.8c4.21,1.8,9.46,3.83,15.31,5.74A140.64,140.64,0,0,0,278.57,346,71.3,71.3,0,0,0,298,345.8c20.5-3.43,35.81-21.56,36.06-42.48,0-1.87-.06-3.7-.15-5.54A110,110,0,0,0,329.59,273.31Zm-48.27-63.17,5.25,5.47s-6.9,8-10.47,11.87c-18.26,19.87-38.58,37.46-59.91,53.94a39.93,39.93,0,0,1-3.85,2.2c2.29-6.09,4-11,6-15.77.41-1,27.56-23.13,39.24-34.48C264.3,226.84,281.32,210.14,281.32,210.14Zm23.43-99.78a44.87,44.87,0,0,1,8.83,1.2c9.68,2.43,12.27,7.15,12.22,16.2a64.94,64.94,0,0,1-1.53,13.51c-2.39,11.15-7.41,21.37-13.49,31.27-1.06,1.73-5.2,8.3-5.2,8.3l-3.95-4.46S313,156,315,145.63a55.75,55.75,0,0,0,1.11-11.14c-.09-6.87-1.91-13.26-9.52-15.2-3.59-.92-26-.29-26-.29l-6.18-5.67C280.21,112.59,293,109.79,304.75,110.36ZM84.38,143.93a97.07,97.07,0,0,1-3-12.49A60,60,0,0,1,81,111.75c.27-1.63.61-3.26,1-4.89,3.1-11.57,12.11-19.07,23.66-21.1a39.74,39.74,0,0,1,12.11-.19c1.37.18,2.73.39,4.1.62,22.13,3.69,44.09,13.28,63.21,24.31L180.09,118s-32.38-17-55.58-19.79c-8.34-1-15.41.36-20.9,3.57a24.31,24.31,0,0,0-10,11.39c-2.32,5.26-3.18,11.66-2.26,18.9,2.84,22.5,14.06,41.24,26.25,59.61,1.4,2.12,1.79,3.12,4,.39,11.05-13.51,23.57-25.61,36.74-37a5.91,5.91,0,0,1,3.64-1.54c-5.11,6-10.27,12-15.3,18.12-7.25,8.79-14.29,17.75-21,27-1.66,2.29-1.79,3.68-.19,6.11,4.62,7,8.28,11.65,13.08,20l-5.83,4s-5.26-7.9-6.39-9.49C109.66,195.59,93.08,171.93,84.38,143.93ZM114.8,308.39a115.74,115.74,0,0,1-15.65.61,31.29,31.29,0,0,1-7.74-1.09c-12.74-4.15-18.16-12.56-15.72-25.62.06-.3.13-.6.19-.9a103.63,103.63,0,0,1,4.17-15.1C85.73,250.42,95,236,105.75,223l4.19,3.29c-8.36,11.92-17,24.94-21.45,39a63.42,63.42,0,0,0-2.61,10.87,26.91,26.91,0,0,0,.48,10.09c2.25,8.9,9.87,11.94,17.5,14.34a27,27,0,0,0,2.88.74c14.18,2.88,32.38-3.59,32.38-3.59a40.9,40.9,0,0,0,4.64,3.58C139,304.56,126.64,307.2,114.8,308.39Zm49.18-21c-12.68-.12-23.89-7.48-26.84-17.77-3.4-11.86,1.5-24.28,12.39-31.32,12.69-8.2,26.43-7.59,40.14-3.9,4.69,1.26,4.91.19,4.92-3.79.07-35.89.24-73.46.27-109.35,0,0,32.25,1.77,55.23,19.65,10,7.82,17.42,17.29,18.4,30.82,1.52,21-8.15,37.06-21.71,52.48.44-5.93,3.09-10.48,4.6-15.34,3-9.64,5.32-19.21,2.06-29.33-5.23-16.22-23.17-26-38.75-26.17-3.61-.05-3.8,2.08-3.8,4.95,0,30.42-.16,60.84-.16,91.26A31.11,31.11,0,0,1,205,268.2C195,282.27,180.75,287.53,164,287.36Zm113.24,38.91a77.3,77.3,0,0,1-17-1.43A103,103,0,0,1,244,320.2c-15.51-5.77-30.14-13.34-44.62-21.7l5.73-2.91S247.74,313.92,270,313.3a35.28,35.28,0,0,0,13.71-3.21,42.61,42.61,0,0,0,19.19-18.21,45.47,45.47,0,0,0,5.32-15.31,46.54,46.54,0,0,1,1.9,6.33,42.45,42.45,0,0,1,.46,16.82c-2.47,13.65-12.34,25.19-31.44,26.44C278.47,326.2,277.86,326.25,277.22,326.27Z"/></g></g></svg>