<svg xmlns="http://www.w3.org/2000/svg" viewBox="0 0 400.05 400"><g id="Layer_2" data-name="Layer 2"><g id="Capa_1" data-name="Capa 1"><path d="M60.08,249.28A146.9,146.9,0,0,1,52.73,218a.77.77,0,0,0-.43-.6c-1.58-.74-7.72-4-7.72-4l-13.39-7.73a3.09,3.09,0,0,1,0-5.35l13.39-7.73,7.18-4.14a.78.78,0,0,0,.38-.61,147.61,147.61,0,0,1,4.75-26.84.82.82,0,0,0,0-.49A191.67,191.67,0,0,1,49,136.25a.78.78,0,0,0-1.47-.12A164,164,0,0,0,36,179.33L2.72,198.52a5.44,5.44,0,0,0,0,9.42l34.2,19.75s.08,0,.12,0a164.11,164.11,0,0,0,13.09,42,.79.79,0,0,0,1.46-.1A146,146,0,0,1,60,249.88.78.78,0,0,0,60.08,249.28Z"/><path d="M224,346.9a2.25,2.25,0,0,0-1.44-.24c-2.17.34-4.35.64-6.54.88a1.75,1.75,0,0,0-1.34.87l-4.22,7.31-7.74,13.39a3.09,3.09,0,0,1-5.35,0l-7.73-13.39-4.38-7.58a1.12,1.12,0,0,0-.86-.56,147,147,0,0,1-48.77-13.93,2.3,2.3,0,0,0-1.65-.14,151.36,151.36,0,0,1-23.32,4.82.31.31,0,0,0-.13.57,164.54,164.54,0,0,0,65.28,24.6l19.51,33.78a5.44,5.44,0,0,0,9.42,0l19.5-33.78a164.19,164.19,0,0,0,25.27-5.81.32.32,0,0,0,0-.62A135.56,135.56,0,0,1,224,346.9Z"/><path d="M397.33,198.52l-33.27-19.21a164,164,0,0,0-9.16-37.13.5.5,0,0,0-1,.13,88.09,88.09,0,0,1-8.52,27.75.51.51,0,0,0,0,.3,149.16,149.16,0,0,1,2.43,16.47,2.69,2.69,0,0,0,1.33,2.11l6.18,3.57,13.39,7.73a3.09,3.09,0,0,1,0,5.35l-13.39,7.73-7.14,4.13a2,2,0,0,0-1,1.51,147.28,147.28,0,0,1-13.58,45.54.47.47,0,0,0,0,.4,150.3,150.3,0,0,1,7,20.38.5.5,0,0,0,.92.15A164.49,164.49,0,0,0,363,227.73s.1,0,.15,0l34.2-19.75A5.44,5.44,0,0,0,397.33,198.52Z"/><path d="M113.3,60.37a129.62,129.62,0,0,1,23.55,5.25.5.5,0,0,0,.34,0,147.42,147.42,0,0,1,47.49-13.21.47.47,0,0,0,.37-.24l4.57-7.91,7.73-13.39a3.09,3.09,0,0,1,5.35,0l7.73,13.39L215,52.15a.52.52,0,0,0,.38.24,147.58,147.58,0,0,1,79.29,33.46A.49.49,0,0,0,295,86c2.46-.21,19.74.54,25.39,2.22a.49.49,0,0,0,.51-.8,165.26,165.26,0,0,0-96.7-50.89L204.72,2.72a5.44,5.44,0,0,0-9.42,0L175.8,36.49a164.52,164.52,0,0,0-62.71,23A.49.49,0,0,0,113.3,60.37Z"/><path d="M164.58,75a.77.77,0,0,0,0,1.41c13.17,6,26.73,13.74,42.1,24a22.94,22.94,0,0,0,13,4.13,30.33,30.33,0,0,0,9.49-1.66l3.08-1c12.57-4.13,25.46-8.34,38.68-11.55a.72.72,0,0,0,.23-1.3C240.68,69.2,194.5,62.48,164.58,75Z"/><path d="M68.62,235c4.64-7.25,9.42-13.76,13.84-19.49l.22-.29c.76-1,1.58-2,2.2-2.89a.56.56,0,0,0,0-.64c-.48-.74-1.07-1.61-1.62-2.43l-.7-1.05a282.48,282.48,0,0,1-16.19-27.11.6.6,0,0,0-1.11.18C62,199.66,63.18,217,67.54,234.85A.59.59,0,0,0,68.62,235Z"/><path d="M322.5,232.89c1.21,4,3,9.88,4.8,15.34a1,1,0,0,0,1.79.16c4.08-7.72,15.79-31.45,7.68-61.73a1,1,0,0,0-1.79-.27l-2.52,4a.88.88,0,0,0-.13.57c.26,3,2,27.64-9.62,41A.92.92,0,0,0,322.5,232.89Z"/><path d="M328.57,273.94c-1.4-3.7-2.93-7.37-4.48-11-3.65-8.58-10.7-32.67-10.7-32.67,14.49-14.3,13.06-22,12-40.2-.08-1.4,2.11-4.5,2.63-5.34,5.5-8.77,10.67-17.72,14.14-27.3A69.22,69.22,0,0,0,346.48,135a50.41,50.41,0,0,0-1.64-14.67,31.16,31.16,0,0,0-9.47-15.17c-.88-.77-1.79-1.53-2.79-2.26-9.15-6.61-19-9.1-29.24-9.28A86.55,86.55,0,0,0,287.4,95c-19.07,3.2-37.41,9.41-55.75,15.43-10.42,3.42-20.08,2.79-29.4-3.41-15.15-10.08-30.86-19.28-47.68-26.28A205.51,205.51,0,0,0,126.72,71a102.3,102.3,0,0,0-25.6-3.41q-3.84,0-7.77.37c-18.84,1.78-34.8,15.08-38.68,33.43a60.65,60.65,0,0,0-.44,20.65c.31,2.27.72,4.53,1.2,6.75a175.09,175.09,0,0,0,5.48,19.6c6.7,19.68,16.6,38,28.29,55.37,5.83,8.69,6,8.23-.43,16.61-9.52,12.35-18.13,25.25-24.58,39.28A129.34,129.34,0,0,0,57,279.08c-.24.85-.45,1.7-.66,2.54-3.1,13.06-1.92,25.58,8.4,36.23,9.62,9.93,21.89,13.27,34.71,13.23h1.51a113.68,113.68,0,0,0,23.62-3.35c14.56-3.47,29-9,42.8-13.65,14.28-4.81,21.26-2.63,32,5.31,5.64,4.16,15.64,15.48,36.74,24.54a143.26,143.26,0,0,0,27.7,8.51c2.44.5,5,1,7.59,1.39a74,74,0,0,0,25.32-.16c23.92-4.36,36.08-19.64,38.1-44.4a62.87,62.87,0,0,0-.37-13.26A99.5,99.5,0,0,0,328.57,273.94Zm-23.91-53.41a14.1,14.1,0,1,1,14.09-14.1A14.09,14.09,0,0,1,304.66,220.53Zm10-104.4c10.67,4.68,13.79,13.93,12.82,24.6a82.62,82.62,0,0,1-5.18,20.14,106.46,106.46,0,0,1-6.14,13,27.6,27.6,0,0,1-2.77,4.46c-.63,1-1,1.57-1,1.57s-.81-.14-2.05-.4c-1.43-.31-3.42-.78-5.5-1.42,6.08-8.94,10.92-18.32,12.88-29.13,2.88-15.93-5.87-28.62-22.19-30.53-1.92-.22-6.47-.06-6.47-.06l-2.33-5.07C296.43,112.8,305.75,112.22,314.66,116.13ZM81.79,136.4c-1.37-7.77-2.17-15.71-.46-23.31.25-1.09.52-2.12.82-3.13,3-9.91,8.68-15.66,17-18.65,5-1.81,10.92-2.63,17.79-2.73,18.29-.26,47.77,13.53,61.8,23.53-2.86.43-7.36.73-7.36.73a162.83,162.83,0,0,0-29.69-10.13c-7-1.59-14.42-2.57-21.09-2.09-21.12,1.51-27.61,12-28.34,28.3-.71,15.79,4.63,30.5,10.61,44.88,2.25,5.43,10.36,21.67,10.36,21.67a41.85,41.85,0,0,1-5.48,3.08C96.1,179.13,85.78,159.12,81.79,136.4Zm22.07,176.5a46.35,46.35,0,0,1-14.17-2.81c-12-4.76-16.62-15.29-15.14-26.13.18-1.31.4-2.6.64-3.88C79,259.74,90.27,243.47,102,226.66l4.81,3.15c-3.32,5.08-6.7,10.13-10,15.2-6.43,9.81-11.38,20.34-12.6,32-1.73,16.53,4.25,25.83,21.35,29.48,6.23,1.33,19.62.2,19.62.2l3.46,4.12A99.86,99.86,0,0,1,103.86,312.9Zm88.59-17.37c-13.79,1.37-27.48,3.9-41.16,6.22-10.24,1.75-17.67-1.15-23.61-9.71-5.4-7.78-6.62-16.47-5.84-25.61.17-2-.27-3.31,3.48-4.18,5.8-1.34,20.16-2,20.16-2l1.13,10.87s-10.35,1.67-11.13,2.94c-3,4.82,2.48,17.15,8.05,18.11,4.81.82,8.69-.68,10.95-5.36,5.18-10.7,4.46-21.84,1.58-32.77-5.06-19.22-14.14-36.94-21.57-55.27-4.79-11.82-10.15-23.44-12.26-36.16-2.89-17.45,3.66-32,20.62-35.77a81,81,0,0,1,13.69-1.33c19.59-.82,39.19-1.33,58.78-2.31,17.36-.86,34.7-2.34,52.11-2,9.72.2,17.45,5.72,20.51,14.46,2.85,8.14-.11,17.94-7.11,23.77a11.22,11.22,0,0,1-6.89,2.78q-28.86,1.42-57.69,3c-16.67.94-33.32,2-50,3-1.5.09-3,0-4.6,0,1.38-7.42,1.89-14.47.08-21.51-1.48-5.79-4.55-10.32-10.87-11.19-6.75-.92-11.79,2.32-15.47,7.74a20.64,20.64,0,0,0-2.75,7c-1.29,5.43,1,8.6,6.48,8.74l9.39.36s-1,20,14.24,19c11.73-.75,23.5-.88,35.25-1.38q31.44-1.3,62.87-2.65c1.81-.08,3.3,0,4,2.1,6.78,20.35,16.61,39.62,21.67,60.55,2.26,9.32,4.6,18.66,2.38,28.57-3,13.43-9.22,19.85-22.64,21.39C241.68,289.93,217.11,293.08,192.45,295.53ZM309,316.39c-7.58,18.33-25.74,23.11-44.38,21.46-2.49-.22-4.95-.56-7.36-1-31.17-5.32-55.4-25.2-55.4-25.2l7.25-2.42s29,13.68,41.69,16.28c12.38,2.53,24.15,1.54,35.25-5.07,9.23-5.5,14.39-13.87,14.65-24.11.13-4.92-.23-15.27-.23-15.27a71,71,0,0,0,7.33-7.59c2.25,7.89,4.13,15.67,4.45,23.41A45,45,0,0,1,309,316.39Z"/><polygon points="249.18 187.77 165.43 193.38 167.74 203.18 251.4 197.58 249.18 187.77"/><polygon points="256.9 213.72 173.15 219.33 175.46 229.12 259.12 223.53 256.9 213.72"/><polygon points="179.84 245.51 182.15 255.31 265.81 249.71 263.59 239.9 179.84 245.51"/><path d="M202.61,334a.44.44,0,0,0,.31-.73c-1.12-1.14-3.35-3.37-4.31-4.2-1.59-1.38-3-2.57-4-3.3-6.31-4.65-10.06-6.29-14.36-6.29a33.8,33.8,0,0,0-10.4,2.11c-3.38,1.13-6.79,2.33-10.24,3.53L154.27,327l-.36.12a.48.48,0,0,0-.12.31.41.41,0,0,0,.11.27l.41.14A132,132,0,0,0,202.61,334Z"/></g></g></svg>