<svg xmlns="http://www.w3.org/2000/svg" viewBox="0 0 95.13 134.79"><g id="Layer_2" data-name="Layer 2"><g id="Capa_1" data-name="Capa 1"><path d="M91.77,12.85a39.67,39.67,0,0,0-3.92-2L60.64.48c-2.68-1-7.1-.29-10.08,1L7.91,19.32c-2,.86-4.46,2.25-5.13,4.19C.56,25.27.15,29.52.1,31.8,0,32.42,0,33.06,0,33.75V99.14c0,4.88,1.63,10,3.67,11.44l.11.08a5.07,5.07,0,0,0,.44.37l4.58,3.21L35.17,133a2.08,2.08,0,0,0,1.59.45c.58.35,1.08.63,1.39.79a5.09,5.09,0,0,0,2.28.54,6.76,6.76,0,0,0,4-1.49l44.77-33c3.37-2.48,5.91-8.61,5.91-14.26V21C95.13,17.12,93.9,14.16,91.77,12.85ZM5.21,95V84.25a1.74,1.74,0,0,1,2.7-1.46l24.5,16.12a1.74,1.74,0,0,1,.78,1.46v11.68a1.74,1.74,0,0,1-2.74,1.43L6,96.43A1.75,1.75,0,0,1,5.21,95ZM7.86,61.12,32.35,75.88a1.77,1.77,0,0,1,.84,1.5V89.17a1.73,1.73,0,0,1-2.68,1.46L6,74.93a1.73,1.73,0,0,1-.8-1.46V62.62A1.75,1.75,0,0,1,7.86,61.12ZM5.21,52.79V41.85A1.75,1.75,0,0,1,7.8,40.32L32.29,53.78a1.76,1.76,0,0,1,.9,1.53V67.19a1.75,1.75,0,0,1-2.63,1.51L6.07,54.3A1.77,1.77,0,0,1,5.21,52.79Zm6.25-29.92c-1-.49,3.14-2.23,8.15-4.59L50.74,5.5c3.68-1.74,6.14-2.19,7.09-1.84L83.5,12.79c2.78,1,.17,1.49-3.47,3.35L49.6,31.67c-5,2.57-9,4.92-11.07,3.73Zm79.26,63.2c0,4.53-2.16,9.28-4.11,10.72l-44.77,33c-.72.53-1.36.73-1.7.56s-1.26-1.37-1.26-4.18V51.05c0-5.18,2.78-10.22,5.27-11.49L88.92,16.69c.37-.19.49-.12.55-.08.5.31,1.25,1.72,1.25,4.36Z"/><path d="M85.51,23.39l-38,20.38A6.73,6.73,0,0,0,44,49.34c-.85,15.74-3.59,75,3.16,72.9,2-.65,10.65-29.78,16-48.45A57,57,0,0,1,77.84,49a31.66,31.66,0,0,0,6.9-9.92c1.45-3.27,2.65-9.88,3.29-13.93A1.72,1.72,0,0,0,85.51,23.39Z"/></g></g></svg>