<svg xmlns="http://www.w3.org/2000/svg" viewBox="0 0 109.27 134.94"><g id="Layer_2" data-name="Layer 2"><g id="Capa_1" data-name="Capa 1"><path d="M106.17,10.75a5.46,5.46,0,0,0-2.09-.74,3.8,3.8,0,0,0-1.16-.63L77,.32c-2.56-.89-7.6.2-11.25,1.74L9,25.94c-3,1.25-6.44,3.13-7.41,5.33C.18,33.25,0,36.35,0,38v62.08c0,4.69,1.35,10.39,3.93,12.19l26,18.11c.67.47,4.9,3.5,5.77,3.94a5.72,5.72,0,0,0,2.63.61,10.7,10.7,0,0,0,6.15-2.37L102.27,90c3.93-2.89,7-9.09,7-14.11V17.42C109.27,14.39,108.14,12,106.17,10.75ZM13.37,109.9c0,.65-.39.9-.86.57l-3-2.11a2.38,2.38,0,0,1-.83-1.75v-5.7c0-.64.37-.9.83-.58l3,2a2.38,2.38,0,0,1,.86,1.76Zm0-17.67c0,.64-.39.91-.86.6l-3-2a2.26,2.26,0,0,1-.83-1.71v-5.7c0-.64.37-.91.83-.62l3,1.91a2.24,2.24,0,0,1,.86,1.71Zm0-17.65c0,.64-.39.93-.85.64l-3-1.84a2.11,2.11,0,0,1-.83-1.66V66c0-.64.37-.93.83-.65l3,1.77a2.15,2.15,0,0,1,.85,1.67Zm0-17.66c0,.65-.39.95-.86.68l-3-1.69a2,2,0,0,1-.84-1.63v-5.7c0-.64.37-.95.84-.69l3,1.62a2,2,0,0,1,.86,1.64Zm13.21,62.33c0,.66-.41.91-.91.56l-3.18-2.26a2.5,2.5,0,0,1-.89-1.83v-5.89c0-.66.4-.92.89-.58l3.18,2.19a2.47,2.47,0,0,1,.91,1.83Zm0-18.27c0,.67-.41.94-.92.6l-3.16-2.1a2.36,2.36,0,0,1-.9-1.8V91.8c0-.66.4-.94.9-.62l3.16,2a2.35,2.35,0,0,1,.92,1.8Zm0-18.24c0,.66-.4.94-.89.63l-3.22-2a2.2,2.2,0,0,1-.87-1.71v-6c0-.64.39-.93.87-.64L25.69,75a2.19,2.19,0,0,1,.89,1.72Zm0-18.32c0,.67-.41,1-.92.69l-3.16-1.8a2.16,2.16,0,0,1-.9-1.72V55.71c0-.66.4-1,.9-.71l3.16,1.74a2.12,2.12,0,0,1,.92,1.72Zm78.51,11.43c0,3.71-2.43,8.63-5.3,10.74L42,129.2c-2.16,1.59-3.73,1.75-4.42,1.4s-1-1.38-1-2.87v-3a22.49,22.49,0,0,0,.16-2.69V54.65c.72-4.15,3.86-8.7,7.5-10.56L102,14.53a2.2,2.2,0,0,1,2-.21c.68.41,1.1,1.6,1.1,3.1Z"/><path d="M88.51,38.4,65.85,51.74a3.36,3.36,0,0,0-1.66,2.9V83.89a7.51,7.51,0,0,0-4,1.4c-4.11,2.67-7.49,8.25-7.49,12.42s3.38,5.28,7.49,2.5,7.31-8.23,7.31-12.3c0,0,0-.09,0-.14h0v-25L87.75,50.26V68.48a6.86,6.86,0,0,0-3.4,1.25c-3.8,2.46-6.91,7.74-6.91,11.74s3.11,5.16,6.91,2.6a16.57,16.57,0,0,0,6.7-10.77h0V39.88A1.72,1.72,0,0,0,88.51,38.4Z"/></g></g></svg>