<svg xmlns="http://www.w3.org/2000/svg" viewBox="0 0 79.66 139.37"><g id="Layer_2" data-name="Layer 2"><g id="Capa_1" data-name="Capa 1"><path d="M76.22,10.11l-.09-.06-.24-.16-.2-.11L53.76.89A5.09,5.09,0,0,0,48.44.6L9.74,16.27C4.41,18.66,0,25.79,0,32.17v87.19c0,3.47,1.31,5.72,3.38,6.46l20.09,12.35a6.4,6.4,0,0,0,.81.5c1.32.67,3.94,1.39,7.5-.66a3.53,3.53,0,0,0,2.78,1.36,4.55,4.55,0,0,0,2.68-1l2.1-1.56a8.92,8.92,0,0,0,3.34-6.66L61,116.73a3.39,3.39,0,0,0,1,.82,3.74,3.74,0,0,0,4-.52l1.85-1.37A8.39,8.39,0,0,0,71,109.43l.42-.3c4.63-3.39,8.25-10.89,8.25-17.08V18.2C79.66,14.58,78.42,11.66,76.22,10.11ZM74.71,92.05c0,4.61-2.85,10.58-6.22,13l-1.64,1.2h0v2.49a5.44,5.44,0,0,1-2.68,3.65.79.79,0,0,1-1.23-.67v-2.61L38.2,127.28v2.57c0,.83,0,1.68-.6,2.16l-2.11,1.49a.66.66,0,0,1-1.05-.54v-3h0l-4.2,3.08c-1.51,1.11-2.94,1.55-3.72,1.15s-1.24-1.79-1.24-3.65V47.2c0-5.15,3.45-11.26,7.54-13.34L59.3,20.35l3.15-1.61,8.62-4.4a3.34,3.34,0,0,1,1.45-.41h.12a1.27,1.27,0,0,1,.65.2c.69.42,1.42,1.71,1.42,4.06Z"/><path d="M59.32,63.28h0a11.66,11.66,0,0,0-5.7,1.88c-9.18,5.51-16.94,20.23-16.94,32.16a16,16,0,0,0,1.77,8.07,5.51,5.51,0,0,0,4.94,3,12.74,12.74,0,0,0,7-2.69C59,99.6,66.09,85.53,66.09,74.3,66.09,69,64.31,63.28,59.32,63.28Z"/><path d="M48,56.71a5.29,5.29,0,0,0,2.55-.84,16.85,16.85,0,0,0,6-7.28,19.05,19.05,0,0,0,1.92-7.88,6.54,6.54,0,0,0-1.32-4.52,2,2,0,0,0-1.48-.61,4.94,4.94,0,0,0-2.22.66c-4.48,2.41-8.27,9.43-8.27,15.33C45.22,52.43,45.35,56.71,48,56.71Z"/></g></g></svg>