<svg xmlns="http://www.w3.org/2000/svg" viewBox="0 0 123.53 134.97"><g id="Layer_2" data-name="Layer 2"><g id="Capa_1" data-name="Capa 1"><path d="M76.12,75.45s-8.76,12.27-12,14.41-12.54,1.46-12.54,1.46c-.68.08-1.39,1.29-1.39,2.38h0c0,12,6.38,17.19,14,11.87,7.37-5.15,13.16-18.29,13.16-29.52h0C77.35,75,76.72,74.73,76.12,75.45Z"/><path d="M74.89,59.41s5.82-8.61,7.85-9.82,7.48.53,7.48.53a1.29,1.29,0,0,0,.79-1.2c0-5.86-3.68-8.49-8.31-5.81S74,53.06,74,59.17C74,59.72,74.47,59.84,74.89,59.41Z"/><path d="M58.63,69.26a1.47,1.47,0,0,0,.92-1.34c0-6.32-4.28-9-9.67-5.85s-10.12,11.2-10.12,17.8c0,.6.51.71,1,.22,0,0,6.8-9.61,9.17-11S58.63,69.26,58.63,69.26Z"/><path d="M123.51,60.55a13.81,13.81,0,0,0-.8-3.57,6.17,6.17,0,0,0-2.47-3.3,4.69,4.69,0,0,0-.77-.4l-.36-.13c-2.61-1.91-5.47-3.78-7.44-5a5.4,5.4,0,0,0-1.15-.69,5.57,5.57,0,0,0-4.48.15c0-.24,0-.47,0-.71V11.25a3.12,3.12,0,0,0-.61-1.83,2.67,2.67,0,0,0-1.59-1.71L87.05.26,86.87.19c-2.68-1-9.29,2-11.25,2.86L10.93,33.13C1,37.73.07,39.55,0,42.11c0,.57,0,3.28,0,5V87.33C0,105.23,6.06,118.6,16.62,124a23.45,23.45,0,0,0,4.86,1.84l15.35,6.79,0,0A22.47,22.47,0,0,0,47,135c6.71,0,14-2.73,21.36-8.09,10.83-7.9,20.44-21,27.25-35.8,4.17,3.26,8.24,5.93,10.64,6.59a3.2,3.2,0,0,0,2.29-.67,4.85,4.85,0,0,0,.43-.3,11,11,0,0,0,3.12-4.19,14.25,14.25,0,0,0,.56-1.35c.6-1.25,7.37-15.63,9.89-24.61.08-.25.14-.49.2-.73l0-.16a18.9,18.9,0,0,0,.74-4.68C123.53,60.84,123.52,60.69,123.51,60.55ZM65.44,122.94c-9.7,7.07-19.08,8.95-26.41,5.28-8.81-4.4-13.86-16.36-13.86-32.8V52.5l75.94-38.44V46.91c0,1.75-.06,3.53-.18,5.32l-.06.07c-.18.26-.35.52-.52.81l-2.72,4.54-2.24-1.34a6.5,6.5,0,0,0-.65-.32l-.17-.07a8,8,0,0,0-3.39-.24,7.87,7.87,0,0,0-2.8,1c-3.1,1.8-5.82,5.69-7.1,10.15a23.63,23.63,0,0,0-1,4.71c0,.16,0,.33,0,.46a10.79,10.79,0,0,0,1,4.43c.1.23.21.47.33.71,1.14,2.31,5.34,6.62,10.09,10.71C85.25,102.41,75.94,115.27,65.44,122.94ZM120,61h0a16,16,0,0,1-.62,3.76l-.23.84c-2.49,8.89-9.64,24-9.71,24.1a.78.78,0,0,0-.05.14c-.18.46-.33.83-.49,1.16a7.9,7.9,0,0,1-2,2.86l-.15.09c-.42.26-.53.16-.66.07a2.12,2.12,0,0,1-.23-.26,1.34,1.34,0,0,0-.34-.33s-.57-.43-1.42-1.14a42.31,42.31,0,0,1-7.4-7.75c-.18-.26-.37-.52-.53-.79s-.37-.59-.54-.89-.33-.61-.47-.92-.17-.36-.24-.55-.1-.25-.14-.37a7.39,7.39,0,0,1-.55-2.64c0-.07,0-.14,0-.25a22.31,22.31,0,0,1,.79-4,18.21,18.21,0,0,1,1.88-4.45,13.43,13.43,0,0,1,2-2.63,7.88,7.88,0,0,1,1.15-1l.19-.13a6.74,6.74,0,0,1,.64-.34,3.89,3.89,0,0,1,.78-.25,3.66,3.66,0,0,1,.73-.06,3.27,3.27,0,0,1,.88.11l.12.06,3.45,2.07a1.71,1.71,0,0,0,1.33.17,1.76,1.76,0,0,0,1.2-.85l3.37-6c.13-.21.25-.42.35-.57a16.58,16.58,0,0,1,2.12-2.54,5.54,5.54,0,0,1,1.43-1,1.84,1.84,0,0,1,1.51-.19l.15.07a2.81,2.81,0,0,1,1.09,1.55,10,10,0,0,1,.61,2.62.41.41,0,0,0,0,.11Z"/></g></g></svg>