<svg xmlns="http://www.w3.org/2000/svg" viewBox="0 0 98.74 148.23"><g id="Layer_2" data-name="Layer 2"><g id="Capa_1" data-name="Capa 1"><path d="M92.5,2.59,77,.15A13.15,13.15,0,0,0,71.5.47l-65,26A8.2,8.2,0,0,0,.21,34.1L0,134.81a8.29,8.29,0,0,0,5.64,7.73l13.48,5a12.64,12.64,0,0,0,9.63-.46L92.41,99.75a10.51,10.51,0,0,0,6.33-9.3V9.4A7,7,0,0,0,92.5,2.59ZM93,87.37a7.05,7.05,0,0,1-4.28,6.25L36.65,135.45c-4.87,2.26-10.43-.7-10.43-5.56l.21-87.52a7.22,7.22,0,0,1,5.49-6.7l51.9-23c4.66-1.32,9.22,1.65,9.22,6Z"/><path d="M42.74,59c1.18,3.19,3.95,4.55,6.69,3.07S54,56.85,53.86,53.2L84.61,37.05a1.92,1.92,0,0,0,.88-1.95.94.94,0,0,0-1.4-.76L53.3,50.25c-1.17-3.09-3.95-4.48-6.7-3.1S42,52.28,42.16,56l-5.79,3a2.07,2.07,0,0,0-.85,2.14c.16.85.8,1.27,1.43,1Z"/><path d="M68.83,70.56c1,3,3.74,4.1,6.49,2.54S80,67.86,80,64.41l5.82-3.2a2,2,0,0,0,.92-2,.89.89,0,0,0-1.36-.74l-5.82,3.16a4.38,4.38,0,0,0-6.5-2.59c-2.77,1.45-4.69,5.11-4.7,8.65L37.42,84.47a2.18,2.18,0,0,0-.89,2.17c.14.86.76,1.27,1.39.93Z"/><path d="M85.53,78.58,64.19,92.07c-1.12-3-3.83-4-6.54-2.39s-4.5,5.6-4.4,9.31l-14.64,9.25a2.33,2.33,0,0,0-.83,2.25c.16.86.78,1.23,1.4.84L53.79,102c1.14,3.05,3.84,4.12,6.53,2.34s4.48-5.73,4.4-9.35L86,81.29a2.15,2.15,0,0,0,.87-2.06A.85.85,0,0,0,85.53,78.58Z"/></g></g></svg>