<svg xmlns="http://www.w3.org/2000/svg" viewBox="0 0 116.86 134.86"><g id="Layer_2" data-name="Layer 2"><g id="Capa_1" data-name="Capa 1"><path d="M33.31,109.53l-4.9,3.61A3.62,3.62,0,0,0,27,115.66V123c0,.83.64,1,1.42.42l4.9-3.74a3.61,3.61,0,0,0,1.37-2.5V110C34.68,109.18,34.07,109,33.31,109.53Z"/><path d="M33.31,87.35l-4.9,3.32A3.37,3.37,0,0,0,27,93.11v7.37c0,.82.64,1,1.42.5l4.9-3.45a3.41,3.41,0,0,0,1.37-2.43V87.88C34.68,87.07,34.07,86.83,33.31,87.35Z"/><path d="M33.31,65.19l-4.91,3A3.17,3.17,0,0,0,27,70.59V78c0,.82.64,1.08,1.41.58l4.91-3.17A3.17,3.17,0,0,0,34.68,73V65.8C34.68,65,34.07,64.72,33.31,65.19Z"/><path d="M85.79,21.09V14.85c0-.71-.47-1-1-.7L81.1,16.21A2.36,2.36,0,0,0,80,18.1v6.35c0,.71.48,1,1.07.67L84.75,23A2.41,2.41,0,0,0,85.79,21.09Z"/><path d="M33.31,43l-4.9,2.74A3,3,0,0,0,27,48.07v7.36c0,.83.64,1.12,1.42.66l4.9-2.87a3,3,0,0,0,1.37-2.28V43.73C34.68,42.92,34.07,42.61,33.31,43Z"/><path d="M51.61,32.21,46.71,35a3,3,0,0,0-1.42,2.29v7.36c0,.83.64,1.12,1.42.66l4.9-2.88A2.94,2.94,0,0,0,53,40.12V32.91C53,32.1,52.37,31.79,51.61,32.21Z"/><path d="M70.17,21l-4.9,2.75A3,3,0,0,0,63.85,26v7.36c0,.83.64,1.12,1.42.66l4.9-2.88a2.94,2.94,0,0,0,1.37-2.27V21.65C71.54,20.84,70.93,20.53,70.17,21Z"/><path d="M51.61,97.14l-4.9,2.75a3,3,0,0,0-1.42,2.29v7.36c0,.82.64,1.12,1.42.66l4.9-2.88A3,3,0,0,0,53,105.05V97.83C53,97,52.37,96.71,51.61,97.14Z"/><path d="M63.85,87.93v7.36c0,.82.64,1.12,1.42.66l4.9-2.88a3,3,0,0,0,1.37-2.27V83.58c0-.81-.61-1.12-1.37-.69l-4.9,2.75A3,3,0,0,0,63.85,87.93Z"/><path d="M116.2,56.15c.89-2.18,1-5.19-.48-6.72-.54-.55-9.5-3.46-9.89-3.51l-1.06-3.05h0a3.64,3.64,0,0,0-2.93-2.48c-1-.2-5.71-1.77-8.64-2.75v-25c0-3.21-1.16-5.74-3.19-7l-.34-.17a2.45,2.45,0,0,0-1.15-.79L75.2.16c-2.28-.79-8,1.61-9.63,2.36L10.15,27.36a30.29,30.29,0,0,0-7.24,4.12,2.41,2.41,0,0,0-.57.25C1.76,32.08,0,33.15,0,41.84v68c0,3.08.25,10.42,2.52,12.08l13.62,9.92c.45.33,3.51,2.14,4.16,2.46a5.71,5.71,0,0,0,2.55.58,10.31,10.31,0,0,0,6.14-2.5L76.37,95.72A3.24,3.24,0,0,0,78,96.93l12.35,4a3.09,3.09,0,0,0,.94.15c1,0,2.58-.48,4-2.86l6.61-11.14a3.17,3.17,0,0,1,.36-.51l5.52.32a3.4,3.4,0,0,0,2.69-1.18A9.34,9.34,0,0,0,112.56,79l-1-10a5,5,0,0,1,.38-2.2Zm-35.72-.58-8,6.9a9.46,9.46,0,0,0-2.89,6.91A4.51,4.51,0,0,0,71.13,73L77,77.57a2.93,2.93,0,0,1,0,1L75.63,92a1.77,1.77,0,0,1,0,.23l-47.3,36.08a10.37,10.37,0,0,1-4.79,2.24,4.89,4.89,0,0,1-1.27,0c-1.88-.29-3.08-1.87-3.08-4.66V51.79c0-5.19,4.14-11.6,9.14-14.25L84.82,7.62c3.57-1.89,6.4.06,6.4,4.31V37l-.34-.12a5.39,5.39,0,0,0-1.75-.45c-2,.08-3.68,1.9-4.39,4.64L81.47,53.68A4,4,0,0,1,80.48,55.57Zm28.94,13.6,1,10c.25,2.38-1.29,5.69-2.64,5.61l-5.91-.35c-.59,0-1.3.54-1.9,1.56l-6.6,11.14c-1.68,2.83-3.68,2.29-3.35-1l1.36-13.43a3.11,3.11,0,0,0-.66-2.7l-6-4.68c-1.51-1.17-.67-5.54,1.38-7.3l8-6.89a6,6,0,0,0,1.66-3l3.27-12.64c.77-2.95,2.93-4.09,3.66-2l3,8.54c.27.8.81,1.13,1.42.9l6.12-2.3c1.39-.52,1.94,2.22.94,4.66L109.94,66A7.15,7.15,0,0,0,109.42,69.17Z"/></g></g></svg>